<svg id="my-svg" width="100%" xmlns="http://www.w3.org/2000/svg" xmlns:xlink="http://www.w3.org/1999/xlink" class="erDiagram" style="max-width: 448.484px; background-color: transparent;" viewBox="0 0 448.484375 644" role="graphics-document document" aria-roledescription="er"><style>#my-svg{font-family:"trebuchet ms",verdana,arial,sans-serif;font-size:16px;fill:#ccc;}@keyframes edge-animation-frame{from{stroke-dashoffset:0;}}@keyframes dash{to{stroke-dashoffset:0;}}#my-svg .edge-animation-slow{stroke-dasharray:9,5!important;stroke-dashoffset:900;animation:dash 50s linear infinite;stroke-linecap:round;}#my-svg .edge-animation-fast{stroke-dasharray:9,5!important;stroke-dashoffset:900;animation:dash 20s linear infinite;stroke-linecap:round;}#my-svg .error-icon{fill:#a44141;}#my-svg .error-text{fill:#ddd;stroke:#ddd;}#my-svg .edge-thickness-normal{stroke-width:1px;}#my-svg .edge-thickness-thick{stroke-width:3.5px;}#my-svg .edge-pattern-solid{stroke-dasharray:0;}#my-svg .edge-thickness-invisible{stroke-width:0;fill:none;}#my-svg .edge-pattern-dashed{stroke-dasharray:3;}#my-svg .edge-pattern-dotted{stroke-dasharray:2;}#my-svg .marker{fill:lightgrey;stroke:lightgrey;}#my-svg .marker.cross{stroke:lightgrey;}#my-svg svg{font-family:"trebuchet ms",verdana,arial,sans-serif;font-size:16px;}#my-svg p{margin:0;}#my-svg .entityBox{fill:#1f2020;stroke:#ccc;}#my-svg .relationshipLabelBox{fill:hsl(20, 1.5873015873%, 12.3529411765%);opacity:0.7;background-color:hsl(20, 1.5873015873%, 12.3529411765%);}#my-svg .relationshipLabelBox rect{opacity:0.5;}#my-svg .labelBkg{background-color:rgba(32.0000000001, 31.3333333334, 31.0000000001, 0.5);}#my-svg .edgeLabel{background-color:hsl(0, 0%, 34.4117647059%);}#my-svg .edgeLabel .label rect{fill:hsl(0, 0%, 34.4117647059%);}#my-svg .edgeLabel .label text{fill:#ccc;}#my-svg .edgeLabel .label{fill:#ccc;font-size:14px;}#my-svg .label{font-family:"trebuchet ms",verdana,arial,sans-serif;color:#ccc;}#my-svg .edge-pattern-dashed{stroke-dasharray:8,8;}#my-svg .node rect,#my-svg .node circle,#my-svg .node ellipse,#my-svg .node polygon{fill:#1f2020;stroke:#ccc;stroke-width:1px;}#my-svg .relationshipLine{stroke:lightgrey;stroke-width:1px;fill:none;}#my-svg .marker{fill:none!important;stroke:lightgrey!important;stroke-width:1;}#my-svg [data-look=neo].labelBkg{background-color:rgba(32.0000000001, 31.3333333334, 31.0000000001, 0.5);}#my-svg .cluster rect{fill:hsl(180, 1.5873015873%, 28.3529411765%);stroke:rgba(255, 255, 255, 0.25);stroke-width:1px;}#my-svg .cluster text{fill:#F9FFFE;}#my-svg .cluster-label text{fill:#F9FFFE;}#my-svg .node .neo-node{stroke:#ccc;}#my-svg [data-look="neo"].node rect,#my-svg [data-look="neo"].cluster rect,#my-svg [data-look="neo"].node polygon{stroke:url(#my-svg-gradient);filter:drop-shadow( 1px 2px 2px rgba(185,185,185,1));}#my-svg [data-look="neo"].swimlane.cluster rect{filter:none;}#my-svg [data-look="neo"].node path{stroke:url(#my-svg-gradient);stroke-width:1px;}#my-svg [data-look="neo"].node .outer-path{filter:drop-shadow( 1px 2px 2px rgba(185,185,185,1));}#my-svg [data-look="neo"].node .neo-line path{stroke:#ccc;filter:none;}#my-svg [data-look="neo"].node circle{stroke:url(#my-svg-gradient);filter:drop-shadow( 1px 2px 2px rgba(185,185,185,1));}#my-svg [data-look="neo"].node circle .state-start{fill:#000000;}#my-svg [data-look="neo"].icon-shape .icon{fill:url(#my-svg-gradient);filter:drop-shadow( 1px 2px 2px rgba(185,185,185,1));}#my-svg [data-look="neo"].icon-shape .icon-neo path{stroke:url(#my-svg-gradient);filter:drop-shadow( 1px 2px 2px rgba(185,185,185,1));}#my-svg :root{--mermaid-font-family:"trebuchet ms",verdana,arial,sans-serif;}</style><g><defs><marker id="my-svg_er-onlyOneStart" class="marker onlyOne er" refX="0" refY="9" markerWidth="18" markerHeight="18" orient="auto"><path d="M9,0 L9,18 M15,0 L15,18"/></marker></defs><defs><marker id="my-svg_er-onlyOneEnd" class="marker onlyOne er" refX="18" refY="9" markerWidth="18" markerHeight="18" orient="auto"><path d="M3,0 L3,18 M9,0 L9,18"/></marker></defs><defs><marker id="my-svg_er-zeroOrOneStart" class="marker zeroOrOne er" refX="0" refY="9" markerWidth="30" markerHeight="18" orient="auto"><circle fill="white" cx="21" cy="9" r="6"/><path d="M9,0 L9,18"/></marker></defs><defs><marker id="my-svg_er-zeroOrOneEnd" class="marker zeroOrOne er" refX="30" refY="9" markerWidth="30" markerHeight="18" orient="auto"><circle fill="white" cx="9" cy="9" r="6"/><path d="M21,0 L21,18"/></marker></defs><defs><marker id="my-svg_er-oneOrMoreStart" class="marker oneOrMore er" refX="18" refY="18" markerWidth="45" markerHeight="36" orient="auto"><path d="M0,18 Q 18,0 36,18 Q 18,36 0,18 M42,9 L42,27"/></marker></defs><defs><marker id="my-svg_er-oneOrMoreEnd" class="marker oneOrMore er" refX="27" refY="18" markerWidth="45" markerHeight="36" orient="auto"><path d="M3,9 L3,27 M9,18 Q27,0 45,18 Q27,36 9,18"/></marker></defs><defs><marker id="my-svg_er-zeroOrMoreStart" class="marker zeroOrMore er" refX="18" refY="18" markerWidth="57" markerHeight="36" orient="auto"><circle fill="white" cx="48" cy="18" r="6"/><path d="M0,18 Q18,0 36,18 Q18,36 0,18"/></marker></defs><defs><marker id="my-svg_er-zeroOrMoreEnd" class="marker zeroOrMore er" refX="39" refY="18" markerWidth="57" markerHeight="36" orient="auto"><circle fill="white" cx="9" cy="18" r="6"/><path d="M21,18 Q39,0 57,18 Q39,36 21,18"/></marker></defs><g class="root"><g class="clusters"/><g class="edgePaths"><path d="M94.383,179L94.383,187.417C94.383,195.833,94.383,212.667,94.383,229.5C94.383,246.333,94.383,263.167,94.383,271.583L94.383,280" id="my-svg-id_entity-CLIENTE-0_entity-PEDIDO-1_0" class="edge-thickness-normal edge-pattern-solid relationshipLine" style="undefined;;;undefined" data-edge="true" data-et="edge" data-id="id_entity-CLIENTE-0_entity-PEDIDO-1_0" data-points="W3sieCI6OTQuMzgyODEyNSwieSI6MTc5fSx7IngiOjk0LjM4MjgxMjUsInkiOjIyOS41fSx7IngiOjk0LjM4MjgxMjUsInkiOjI4MH1d" data-look="classic" marker-start="url(#my-svg_er-onlyOneStart)" marker-end="url(#my-svg_er-zeroOrMoreEnd)"/><path d="M94.383,451L94.383,459.417C94.383,467.833,94.383,484.667,107.406,501.5C120.428,518.333,146.474,535.167,159.496,543.583L172.519,552" id="my-svg-id_entity-PEDIDO-1_entity-ITEM-PEDIDO-2_1" class="edge-thickness-normal edge-pattern-solid relationshipLine" style="undefined;;;undefined" data-edge="true" data-et="edge" data-id="id_entity-PEDIDO-1_entity-ITEM-PEDIDO-2_1" data-points="W3sieCI6OTQuMzgyODEyNSwieSI6NDUxfSx7IngiOjk0LjM4MjgxMjUsInkiOjUwMS41fSx7IngiOjE3Mi41MTkxOTM0MTIxNjIxNywieSI6NTUyfV0=" data-look="classic" marker-start="url(#my-svg_er-onlyOneStart)" marker-end="url(#my-svg_er-oneOrMoreEnd)"/><path d="M380.625,407.5L380.625,423.167C380.625,438.833,380.625,470.167,367.602,494.25C354.58,518.333,328.534,535.167,315.511,543.583L302.489,552" id="my-svg-id_entity-PRODUTO-3_entity-ITEM-PEDIDO-2_2" class="edge-thickness-normal edge-pattern-solid relationshipLine" style="undefined;;;undefined" data-edge="true" data-et="edge" data-id="id_entity-PRODUTO-3_entity-ITEM-PEDIDO-2_2" data-points="W3sieCI6MzgwLjYyNSwieSI6NDA3LjV9LHsieCI6MzgwLjYyNSwieSI6NTAxLjV9LHsieCI6MzAyLjQ4ODYxOTA4NzgzNzgzLCJ5Ijo1NTJ9XQ==" data-look="classic" marker-start="url(#my-svg_er-onlyOneStart)" marker-end="url(#my-svg_er-zeroOrMoreEnd)"/></g><g class="edgeLabels"><g class="edgeLabel" transform="translate(94.3828125, 229.5)"><g class="label" data-id="id_entity-CLIENTE-0_entity-PEDIDO-1_0" transform="translate(-9.34375, -10.5)"><foreignObject width="18.6875" height="21"><div xmlns="http://www.w3.org/1999/xhtml" class="labelBkg" style="display: table-cell; white-space: nowrap; line-height: 1.5; max-width: 200px; text-align: center;"><span class="edgeLabel"><p>faz</p></span></div></foreignObject></g></g><g class="edgeLabel" transform="translate(94.3828125, 501.5)"><g class="label" data-id="id_entity-PEDIDO-1_entity-ITEM-PEDIDO-2_1" transform="translate(-22.9609375, -10.5)"><foreignObject width="45.921875" height="21"><div xmlns="http://www.w3.org/1999/xhtml" class="labelBkg" style="display: table-cell; white-space: nowrap; line-height: 1.5; max-width: 200px; text-align: center;"><span class="edgeLabel"><p>contem</p></span></div></foreignObject></g></g><g class="edgeLabel" transform="translate(380.625, 501.5)"><g class="label" data-id="id_entity-PRODUTO-3_entity-ITEM-PEDIDO-2_2" transform="translate(-35.796875, -10.5)"><foreignObject width="71.59375" height="21"><div xmlns="http://www.w3.org/1999/xhtml" class="labelBkg" style="display: table-cell; white-space: nowrap; line-height: 1.5; max-width: 200px; text-align: center;"><span class="edgeLabel"><p>incluido-em</p></span></div></foreignObject></g></g></g><g class="nodes"><g class="node default" id="my-svg-entity-CLIENTE-0" data-look="classic" transform="translate(94.3828125, 93.5)"><g class="outer-path" style=""><path d="M-64.578125 -85.5 L64.578125 -85.5 L64.578125 85.5 L-64.578125 85.5" stroke="none" stroke-width="0" fill="#1f2020"/><path d="M-64.578125 -85.5 C-14.514345228961574 -85.5, 35.54943454207685 -85.5, 64.578125 -85.5 M-64.578125 -85.5 C-33.080604824930774 -85.5, -1.5830846498615543 -85.5, 64.578125 -85.5 M64.578125 -85.5 C64.578125 -27.107049875566588, 64.578125 31.285900248866824, 64.578125 85.5 M64.578125 -85.5 C64.578125 -19.75056733900901, 64.578125 45.99886532198198, 64.578125 85.5 M64.578125 85.5 C23.329008528036958 85.5, -17.920107943926084 85.5, -64.578125 85.5 M64.578125 85.5 C26.3107852046313 85.5, -11.956554590737397 85.5, -64.578125 85.5 M-64.578125 85.5 C-64.578125 47.72648963540764, -64.578125 9.952979270815277, -64.578125 -85.5 M-64.578125 85.5 C-64.578125 32.78390981657994, -64.578125 -19.932180366840115, -64.578125 -85.5" stroke="#ccc" stroke-width="1.3" fill="none" stroke-dasharray="0 0"/></g><g style="" class="row-rect-odd"><path d="M-64.578125 -42.75 L64.578125 -42.75 L64.578125 0 L-64.578125 0" stroke="none" stroke-width="0" fill="hsl(180, 1.5873015873%, 17.3529411765%)"/><path d="M-64.578125 -42.75 C-34.18428544610752 -42.75, -3.790445892215047 -42.75, 64.578125 -42.75 M-64.578125 -42.75 C-23.225259651067425 -42.75, 18.12760569786515 -42.75, 64.578125 -42.75 M64.578125 -42.75 C64.578125 -27.514939514753788, 64.578125 -12.279879029507576, 64.578125 0 M64.578125 -42.75 C64.578125 -31.85086541167695, 64.578125 -20.951730823353902, 64.578125 0 M64.578125 0 C38.05925853940484 0, 11.540392078809674 0, -64.578125 0 M64.578125 0 C16.103760881694136 0, -32.37060323661173 0, -64.578125 0 M-64.578125 0 C-64.578125 -9.368655957789656, -64.578125 -18.737311915579312, -64.578125 -42.75 M-64.578125 0 C-64.578125 -15.143492314650775, -64.578125 -30.28698462930155, -64.578125 -42.75" stroke="#ccc" stroke-width="1.3" fill="none" stroke-dasharray="0 0"/></g><g style="" class="row-rect-even"><path d="M-64.578125 0 L64.578125 0 L64.578125 42.75 L-64.578125 42.75" stroke="none" stroke-width="0" fill="hsl(180, 1.5873015873%, 2.3529411765%)"/><path d="M-64.578125 0 C-35.32531594316377 0, -6.072506886327538 0, 64.578125 0 M-64.578125 0 C-15.399924023318697 0, 33.77827695336261 0, 64.578125 0 M64.578125 0 C64.578125 8.662133137860204, 64.578125 17.324266275720408, 64.578125 42.75 M64.578125 0 C64.578125 14.353924364012157, 64.578125 28.707848728024313, 64.578125 42.75 M64.578125 42.75 C14.529350491843005 42.75, -35.51942401631399 42.75, -64.578125 42.75 M64.578125 42.75 C26.114085604685464 42.75, -12.349953790629073 42.75, -64.578125 42.75 M-64.578125 42.75 C-64.578125 30.843218525778845, -64.578125 18.936437051557693, -64.578125 0 M-64.578125 42.75 C-64.578125 28.11706643360301, -64.578125 13.484132867206021, -64.578125 0" stroke="#ccc" stroke-width="1.3" fill="none" stroke-dasharray="0 0"/></g><g style="" class="row-rect-odd"><path d="M-64.578125 42.75 L64.578125 42.75 L64.578125 85.5 L-64.578125 85.5" stroke="none" stroke-width="0" fill="hsl(180, 1.5873015873%, 17.3529411765%)"/><path d="M-64.578125 42.75 C-31.87381108891052 42.75, 0.830502822178957 42.75, 64.578125 42.75 M-64.578125 42.75 C-38.27529026022722 42.75, -11.972455520454439 42.75, 64.578125 42.75 M64.578125 42.75 C64.578125 53.08636669990456, 64.578125 63.422733399809125, 64.578125 85.5 M64.578125 42.75 C64.578125 59.340763521993686, 64.578125 75.93152704398737, 64.578125 85.5 M64.578125 85.5 C23.265504556814562 85.5, -18.047115886370875 85.5, -64.578125 85.5 M64.578125 85.5 C28.4864550292178 85.5, -7.605214941564398 85.5, -64.578125 85.5 M-64.578125 85.5 C-64.578125 68.47437690172987, -64.578125 51.44875380345973, -64.578125 42.75 M-64.578125 85.5 C-64.578125 76.43370945297913, -64.578125 67.36741890595825, -64.578125 42.75" stroke="#ccc" stroke-width="1.3" fill="none" stroke-dasharray="0 0"/></g><g class="label name" transform="translate(-33.7890625, -76.125)" style=""><foreignObject width="67.578125" height="24"><div xmlns="http://www.w3.org/1999/xhtml" style="display: table-cell; white-space: nowrap; line-height: 1.5; max-width: 167px; text-align: start;"><span class="nodeLabel"><p>CLIENTE</p></span></div></foreignObject></g><g class="label attribute-type" transform="translate(-52.078125, -33.375)" style=""><foreignObject width="16.90625" height="24"><div xmlns="http://www.w3.org/1999/xhtml" style="display: table-cell; white-space: nowrap; line-height: 1.5; max-width: 117px; text-align: start;"><span class="nodeLabel"><p>int</p></span></div></foreignObject></g><g class="label attribute-name" transform="translate(12.046875, -33.375)" style=""><foreignObject width="12.453125" height="24"><div xmlns="http://www.w3.org/1999/xhtml" style="display: table-cell; white-space: nowrap; line-height: 1.5; max-width: 112px; text-align: start;"><span class="nodeLabel"><p>id</p></span></div></foreignObject></g><g class="label attribute-keys" transform="translate(77.078125, -33.375)" style=""><foreignObject width="0" height="0"><div xmlns="http://www.w3.org/1999/xhtml" style="display: table-cell; white-space: nowrap; line-height: 1.5; max-width: 100px; text-align: start;"><span class="nodeLabel"></span></div></foreignObject></g><g class="label attribute-comment" transform="translate(77.078125, -33.375)" style=""><foreignObject width="0" height="0"><div xmlns="http://www.w3.org/1999/xhtml" style="display: table-cell; white-space: nowrap; line-height: 1.5; max-width: 100px; text-align: start;"><span class="nodeLabel"></span></div></foreignObject></g><g class="label attribute-type" transform="translate(-52.078125, 9.375)" style=""><foreignObject width="39.125" height="24"><div xmlns="http://www.w3.org/1999/xhtml" style="display: table-cell; white-space: nowrap; line-height: 1.5; max-width: 136px; text-align: start;"><span class="nodeLabel"><p>string</p></span></div></foreignObject></g><g class="label attribute-name" transform="translate(12.046875, 9.375)" style=""><foreignObject width="40.03125" height="24"><div xmlns="http://www.w3.org/1999/xhtml" style="display: table-cell; white-space: nowrap; line-height: 1.5; max-width: 136px; text-align: start;"><span class="nodeLabel"><p>nome</p></span></div></foreignObject></g><g class="label attribute-keys" transform="translate(77.078125, 9.375)" style=""><foreignObject width="0" height="0"><div xmlns="http://www.w3.org/1999/xhtml" style="display: table-cell; white-space: nowrap; line-height: 1.5; max-width: 100px; text-align: start;"><span class="nodeLabel"></span></div></foreignObject></g><g class="label attribute-comment" transform="translate(77.078125, 9.375)" style=""><foreignObject width="0" height="0"><div xmlns="http://www.w3.org/1999/xhtml" style="display: table-cell; white-space: nowrap; line-height: 1.5; max-width: 100px; text-align: start;"><span class="nodeLabel"></span></div></foreignObject></g><g class="label attribute-type" transform="translate(-52.078125, 52.125)" style=""><foreignObject width="39.125" height="24"><div xmlns="http://www.w3.org/1999/xhtml" style="display: table-cell; white-space: nowrap; line-height: 1.5; max-width: 136px; text-align: start;"><span class="nodeLabel"><p>string</p></span></div></foreignObject></g><g class="label attribute-name" transform="translate(12.046875, 52.125)" style=""><foreignObject width="38.234375" height="24"><div xmlns="http://www.w3.org/1999/xhtml" style="display: table-cell; white-space: nowrap; line-height: 1.5; max-width: 136px; text-align: start;"><span class="nodeLabel"><p>email</p></span></div></foreignObject></g><g class="label attribute-keys" transform="translate(77.078125, 52.125)" style=""><foreignObject width="0" height="0"><div xmlns="http://www.w3.org/1999/xhtml" style="display: table-cell; white-space: nowrap; line-height: 1.5; max-width: 100px; text-align: start;"><span class="nodeLabel"></span></div></foreignObject></g><g class="label attribute-comment" transform="translate(77.078125, 52.125)" style=""><foreignObject width="0" height="0"><div xmlns="http://www.w3.org/1999/xhtml" style="display: table-cell; white-space: nowrap; line-height: 1.5; max-width: 100px; text-align: start;"><span class="nodeLabel"></span></div></foreignObject></g><g class="divider"><path d="M-64.578125 -42.75005 L-64.578125 -42.74995 L64.578125 -42.74995 L64.578125 -42.75005" stroke="none" stroke-width="0" fill="#1f2020" fill-rule="evenodd"/><path d="M-64.578125 -42.75005 C-64.578125 -42.750015625639485, -64.578125 -42.74998125127897, -64.578125 -42.74995 M-64.578125 -42.75005 C-64.578125 -42.75001827457234, -64.578125 -42.74998654914467, -64.578125 -42.74995 M-64.578125 -42.74995 C-26.450717976794742 -42.74995, 11.676689046410516 -42.74995, 64.578125 -42.74995 M-64.578125 -42.74995 C-16.86063457855162 -42.74995, 30.856855842896763 -42.74995, 64.578125 -42.74995 M64.578125 -42.74995 C64.578125 -42.749987965056754, 64.578125 -42.75002593011351, 64.578125 -42.75005 M64.578125 -42.74995 C64.578125 -42.74997279973661, 64.578125 -42.74999559947322, 64.578125 -42.75005 M64.578125 -42.75005 C13.020790927128175 -42.75005, -38.53654314574365 -42.75005, -64.578125 -42.75005 M64.578125 -42.75005 C15.14201686406578 -42.75005, -34.29409127186844 -42.75005, -64.578125 -42.75005" stroke="#ccc" stroke-width="1.3" fill="none" stroke-dasharray="0 0"/></g><g class="divider"><path d="M-0.453175 -42.75 L-0.453075 -42.75 L-0.453075 85.5 L-0.453175 85.5" stroke="none" stroke-width="0" fill="#1f2020" fill-rule="evenodd"/><path d="M-0.453175 -42.75 C-0.45314662011207496 -42.75, -0.45311824022414987 -42.75, -0.453075 -42.75 M-0.453175 -42.75 C-0.4531393095019033 -42.75, -0.4531036190038066 -42.75, -0.453075 -42.75 M-0.453075 -42.75 C-0.453075 -15.543401142075364, -0.453075 11.663197715849272, -0.453075 85.5 M-0.453075 -42.75 C-0.453075 7.483696195849092, -0.453075 57.71739239169818, -0.453075 85.5 M-0.453075 85.5 C-0.4530957660631079 85.5, -0.45311653212621583 85.5, -0.453175 85.5 M-0.453075 85.5 C-0.4531064840400417 85.5, -0.45313796808008344 85.5, -0.453175 85.5 M-0.453175 85.5 C-0.453175 53.22217475923815, -0.453175 20.9443495184763, -0.453175 -42.75 M-0.453175 85.5 C-0.453175 46.55191962313265, -0.453175 7.603839246265295, -0.453175 -42.75" stroke="#ccc" stroke-width="1.3" fill="none" stroke-dasharray="0 0"/></g><g class="divider"><path d="M-64.578125 -42.75005 L-64.578125 -42.74995 L64.578125 -42.74995 L64.578125 -42.75005" stroke="none" stroke-width="0" fill="#1f2020" fill-rule="evenodd"/><path d="M-64.578125 -42.75005 C-64.578125 -42.750017997250296, -64.578125 -42.7499859945006, -64.578125 -42.74995 M-64.578125 -42.75005 C-64.578125 -42.750023011241346, -64.578125 -42.749996022482684, -64.578125 -42.74995 M-64.578125 -42.74995 C-38.74558557013103 -42.74995, -12.913046140262054 -42.74995, 64.578125 -42.74995 M-64.578125 -42.74995 C-15.140701933188886 -42.74995, 34.29672113362223 -42.74995, 64.578125 -42.74995 M64.578125 -42.74995 C64.578125 -42.74997033690139, 64.578125 -42.749990673802785, 64.578125 -42.75005 M64.578125 -42.74995 C64.578125 -42.74998195163817, 64.578125 -42.75001390327634, 64.578125 -42.75005 M64.578125 -42.75005 C14.25653344702637 -42.75005, -36.06505810594726 -42.75005, -64.578125 -42.75005 M64.578125 -42.75005 C18.072911483507724 -42.75005, -28.432302032984552 -42.75005, -64.578125 -42.75005" stroke="#ccc" stroke-width="1.3" fill="none" stroke-dasharray="0 0"/></g></g><g class="node default" id="my-svg-entity-PEDIDO-1" data-look="classic" transform="translate(94.3828125, 365.5)"><g class="outer-path" style=""><path d="M-86.3828125 -85.5 L86.3828125 -85.5 L86.3828125 85.5 L-86.3828125 85.5" stroke="none" stroke-width="0" fill="#1f2020"/><path d="M-86.3828125 -85.5 C-33.960379313524335 -85.5, 18.46205387295133 -85.5, 86.3828125 -85.5 M-86.3828125 -85.5 C-31.32472959266751 -85.5, 23.73335331466498 -85.5, 86.3828125 -85.5 M86.3828125 -85.5 C86.3828125 -28.176592202896586, 86.3828125 29.146815594206828, 86.3828125 85.5 M86.3828125 -85.5 C86.3828125 -47.318003126280104, 86.3828125 -9.136006252560207, 86.3828125 85.5 M86.3828125 85.5 C18.67197016568697 85.5, -49.03887216862606 85.5, -86.3828125 85.5 M86.3828125 85.5 C21.122808013308884 85.5, -44.13719647338223 85.5, -86.3828125 85.5 M-86.3828125 85.5 C-86.3828125 29.02477252218668, -86.3828125 -27.45045495562664, -86.3828125 -85.5 M-86.3828125 85.5 C-86.3828125 39.12665449578505, -86.3828125 -7.246691008429906, -86.3828125 -85.5" stroke="#ccc" stroke-width="1.3" fill="none" stroke-dasharray="0 0"/></g><g style="" class="row-rect-odd"><path d="M-86.3828125 -42.75 L86.3828125 -42.75 L86.3828125 0 L-86.3828125 0" stroke="none" stroke-width="0" fill="hsl(180, 1.5873015873%, 17.3529411765%)"/><path d="M-86.3828125 -42.75 C-19.34134707712856 -42.75, 47.70011834574288 -42.75, 86.3828125 -42.75 M-86.3828125 -42.75 C-18.786088592061503 -42.75, 48.81063531587699 -42.75, 86.3828125 -42.75 M86.3828125 -42.75 C86.3828125 -32.822989343499, 86.3828125 -22.895978686998006, 86.3828125 0 M86.3828125 -42.75 C86.3828125 -29.96257144784886, 86.3828125 -17.175142895697718, 86.3828125 0 M86.3828125 0 C42.69067305731996 0, -1.0014663853600752 0, -86.3828125 0 M86.3828125 0 C42.31915429358228 0, -1.744503912835441 0, -86.3828125 0 M-86.3828125 0 C-86.3828125 -13.843501322944446, -86.3828125 -27.687002645888892, -86.3828125 -42.75 M-86.3828125 0 C-86.3828125 -10.006094991137719, -86.3828125 -20.012189982275437, -86.3828125 -42.75" stroke="#ccc" stroke-width="1.3" fill="none" stroke-dasharray="0 0"/></g><g style="" class="row-rect-even"><path d="M-86.3828125 0 L86.3828125 0 L86.3828125 42.75 L-86.3828125 42.75" stroke="none" stroke-width="0" fill="hsl(180, 1.5873015873%, 2.3529411765%)"/><path d="M-86.3828125 0 C-26.568040833361195 0, 33.24673083327761 0, 86.3828125 0 M-86.3828125 0 C-42.12853981210259 0, 2.1257328757948244 0, 86.3828125 0 M86.3828125 0 C86.3828125 12.648364732924597, 86.3828125 25.296729465849193, 86.3828125 42.75 M86.3828125 0 C86.3828125 15.415787012641358, 86.3828125 30.831574025282716, 86.3828125 42.75 M86.3828125 42.75 C37.73592941730308 42.75, -10.910953665393833 42.75, -86.3828125 42.75 M86.3828125 42.75 C30.19805198413556 42.75, -25.98670853172888 42.75, -86.3828125 42.75 M-86.3828125 42.75 C-86.3828125 29.234615690978572, -86.3828125 15.719231381957147, -86.3828125 0 M-86.3828125 42.75 C-86.3828125 31.681003881624946, -86.3828125 20.612007763249895, -86.3828125 0" stroke="#ccc" stroke-width="1.3" fill="none" stroke-dasharray="0 0"/></g><g style="" class="row-rect-odd"><path d="M-86.3828125 42.75 L86.3828125 42.75 L86.3828125 85.5 L-86.3828125 85.5" stroke="none" stroke-width="0" fill="hsl(180, 1.5873015873%, 17.3529411765%)"/><path d="M-86.3828125 42.75 C-36.42467321150286 42.75, 13.533466076994273 42.75, 86.3828125 42.75 M-86.3828125 42.75 C-35.065230906372 42.75, 16.252350687255998 42.75, 86.3828125 42.75 M86.3828125 42.75 C86.3828125 54.25934714123203, 86.3828125 65.76869428246405, 86.3828125 85.5 M86.3828125 42.75 C86.3828125 51.360327754157694, 86.3828125 59.97065550831538, 86.3828125 85.5 M86.3828125 85.5 C51.08328708133107 85.5, 15.783761662662144 85.5, -86.3828125 85.5 M86.3828125 85.5 C30.663378216809676 85.5, -25.05605606638065 85.5, -86.3828125 85.5 M-86.3828125 85.5 C-86.3828125 72.60536481935534, -86.3828125 59.71072963871069, -86.3828125 42.75 M-86.3828125 85.5 C-86.3828125 74.02593774973175, -86.3828125 62.5518754994635, -86.3828125 42.75" stroke="#ccc" stroke-width="1.3" fill="none" stroke-dasharray="0 0"/></g><g class="label name" transform="translate(-30.671875, -76.125)" style=""><foreignObject width="61.34375" height="24"><div xmlns="http://www.w3.org/1999/xhtml" style="display: table-cell; white-space: nowrap; line-height: 1.5; max-width: 159px; text-align: start;"><span class="nodeLabel"><p>PEDIDO</p></span></div></foreignObject></g><g class="label attribute-type" transform="translate(-73.8828125, -33.375)" style=""><foreignObject width="16.90625" height="24"><div xmlns="http://www.w3.org/1999/xhtml" style="display: table-cell; white-space: nowrap; line-height: 1.5; max-width: 117px; text-align: start;"><span class="nodeLabel"><p>int</p></span></div></foreignObject></g><g class="label attribute-name" transform="translate(-17.7421875, -33.375)" style=""><foreignObject width="12.453125" height="24"><div xmlns="http://www.w3.org/1999/xhtml" style="display: table-cell; white-space: nowrap; line-height: 1.5; max-width: 112px; text-align: start;"><span class="nodeLabel"><p>id</p></span></div></foreignObject></g><g class="label attribute-keys" transform="translate(98.8828125, -33.375)" style=""><foreignObject width="0" height="0"><div xmlns="http://www.w3.org/1999/xhtml" style="display: table-cell; white-space: nowrap; line-height: 1.5; max-width: 100px; text-align: start;"><span class="nodeLabel"></span></div></foreignObject></g><g class="label attribute-comment" transform="translate(98.8828125, -33.375)" style=""><foreignObject width="0" height="0"><div xmlns="http://www.w3.org/1999/xhtml" style="display: table-cell; white-space: nowrap; line-height: 1.5; max-width: 100px; text-align: start;"><span class="nodeLabel"></span></div></foreignObject></g><g class="label attribute-type" transform="translate(-73.8828125, 9.375)" style=""><foreignObject width="31.140625" height="24"><div xmlns="http://www.w3.org/1999/xhtml" style="display: table-cell; white-space: nowrap; line-height: 1.5; max-width: 127px; text-align: start;"><span class="nodeLabel"><p>date</p></span></div></foreignObject></g><g class="label attribute-name" transform="translate(-17.7421875, 9.375)" style=""><foreignObject width="91.625" height="24"><div xmlns="http://www.w3.org/1999/xhtml" style="display: table-cell; white-space: nowrap; line-height: 1.5; max-width: 192px; text-align: start;"><span class="nodeLabel"><p>data_criacao</p></span></div></foreignObject></g><g class="label attribute-keys" transform="translate(98.8828125, 9.375)" style=""><foreignObject width="0" height="0"><div xmlns="http://www.w3.org/1999/xhtml" style="display: table-cell; white-space: nowrap; line-height: 1.5; max-width: 100px; text-align: start;"><span class="nodeLabel"></span></div></foreignObject></g><g class="label attribute-comment" transform="translate(98.8828125, 9.375)" style=""><foreignObject width="0" height="0"><div xmlns="http://www.w3.org/1999/xhtml" style="display: table-cell; white-space: nowrap; line-height: 1.5; max-width: 100px; text-align: start;"><span class="nodeLabel"></span></div></foreignObject></g><g class="label attribute-type" transform="translate(-73.8828125, 52.125)" style=""><foreignObject width="30.25" height="24"><div xmlns="http://www.w3.org/1999/xhtml" style="display: table-cell; white-space: nowrap; line-height: 1.5; max-width: 130px; text-align: start;"><span class="nodeLabel"><p>float</p></span></div></foreignObject></g><g class="label attribute-name" transform="translate(-17.7421875, 52.125)" style=""><foreignObject width="73.828125" height="24"><div xmlns="http://www.w3.org/1999/xhtml" style="display: table-cell; white-space: nowrap; line-height: 1.5; max-width: 174px; text-align: start;"><span class="nodeLabel"><p>valor_total</p></span></div></foreignObject></g><g class="label attribute-keys" transform="translate(98.8828125, 52.125)" style=""><foreignObject width="0" height="0"><div xmlns="http://www.w3.org/1999/xhtml" style="display: table-cell; white-space: nowrap; line-height: 1.5; max-width: 100px; text-align: start;"><span class="nodeLabel"></span></div></foreignObject></g><g class="label attribute-comment" transform="translate(98.8828125, 52.125)" style=""><foreignObject width="0" height="0"><div xmlns="http://www.w3.org/1999/xhtml" style="display: table-cell; white-space: nowrap; line-height: 1.5; max-width: 100px; text-align: start;"><span class="nodeLabel"></span></div></foreignObject></g><g class="divider"><path d="M-86.3828125 -42.75005 L-86.3828125 -42.74995 L86.3828125 -42.74995 L86.3828125 -42.75005" stroke="none" stroke-width="0" fill="#1f2020" fill-rule="evenodd"/><path d="M-86.3828125 -42.75005 C-86.3828125 -42.75001041020497, -86.3828125 -42.74997082040994, -86.3828125 -42.74995 M-86.3828125 -42.75005 C-86.3828125 -42.75001400621744, -86.3828125 -42.74997801243488, -86.3828125 -42.74995 M-86.3828125 -42.74995 C-23.91257931130943 -42.74995, 38.55765387738114 -42.74995, 86.3828125 -42.74995 M-86.3828125 -42.74995 C-49.255518325361656 -42.74995, -12.128224150723312 -42.74995, 86.3828125 -42.74995 M86.3828125 -42.74995 C86.3828125 -42.749977868331406, 86.3828125 -42.75000573666281, 86.3828125 -42.75005 M86.3828125 -42.74995 C86.3828125 -42.749989140006605, 86.3828125 -42.75002828001321, 86.3828125 -42.75005 M86.3828125 -42.75005 C26.79238700844816 -42.75005, -32.79803848310368 -42.75005, -86.3828125 -42.75005 M86.3828125 -42.75005 C45.961380339516985 -42.75005, 5.539948179033971 -42.75005, -86.3828125 -42.75005" stroke="#ccc" stroke-width="1.3" fill="none" stroke-dasharray="0 0"/></g><g class="divider"><path d="M-30.2422375 -42.75 L-30.2421375 -42.75 L-30.2421375 85.5 L-30.2422375 85.5" stroke="none" stroke-width="0" fill="#1f2020" fill-rule="evenodd"/><path d="M-30.2422375 -42.75 C-30.242216045528785 -42.75, -30.24219459105757 -42.75, -30.2421375 -42.75 M-30.2422375 -42.75 C-30.242200122791463 -42.75, -30.242162745582924 -42.75, -30.2421375 -42.75 M-30.2421375 -42.75 C-30.2421375 -10.386180933113629, -30.2421375 21.977638133772743, -30.2421375 85.5 M-30.2421375 -42.75 C-30.2421375 -2.4000819467749466, -30.2421375 37.94983610645011, -30.2421375 85.5 M-30.2421375 85.5 C-30.242173100964724 85.5, -30.24220870192945 85.5, -30.2422375 85.5 M-30.2421375 85.5 C-30.242162375399037 85.5, -30.242187250798075 85.5, -30.2422375 85.5 M-30.2422375 85.5 C-30.2422375 59.10594647835975, -30.2422375 32.711892956719495, -30.2422375 -42.75 M-30.2422375 85.5 C-30.2422375 55.431711115723814, -30.2422375 25.363422231447636, -30.2422375 -42.75" stroke="#ccc" stroke-width="1.3" fill="none" stroke-dasharray="0 0"/></g><g class="divider"><path d="M-86.3828125 -42.75005 L-86.3828125 -42.74995 L86.3828125 -42.74995 L86.3828125 -42.75005" stroke="none" stroke-width="0" fill="#1f2020" fill-rule="evenodd"/><path d="M-86.3828125 -42.75005 C-86.3828125 -42.7500289197438, -86.3828125 -42.750007839487594, -86.3828125 -42.74995 M-86.3828125 -42.75005 C-86.3828125 -42.75002961421921, -86.3828125 -42.750009228438415, -86.3828125 -42.74995 M-86.3828125 -42.74995 C-32.633927719547245 -42.74995, 21.11495706090551 -42.74995, 86.3828125 -42.74995 M-86.3828125 -42.74995 C-22.026414961280594 -42.74995, 42.32998257743881 -42.74995, 86.3828125 -42.74995 M86.3828125 -42.74995 C86.3828125 -42.7499788480292, 86.3828125 -42.75000769605841, 86.3828125 -42.75005 M86.3828125 -42.74995 C86.3828125 -42.74997725515647, 86.3828125 -42.750004510312955, 86.3828125 -42.75005 M86.3828125 -42.75005 C19.49860857298478 -42.75005, -47.38559535403044 -42.75005, -86.3828125 -42.75005 M86.3828125 -42.75005 C28.218784429801865 -42.75005, -29.94524364039627 -42.75005, -86.3828125 -42.75005" stroke="#ccc" stroke-width="1.3" fill="none" stroke-dasharray="0 0"/></g></g><g class="node default" id="my-svg-entity-ITEM-PEDIDO-2" data-look="classic" transform="translate(237.50390625, 594)"><rect class="basic label-container" style="" x="-72.4453125" y="-42" width="144.890625" height="84"/><g class="label" style="" transform="translate(-52.4453125, -12)"><rect/><foreignObject width="104.890625" height="24"><div xmlns="http://www.w3.org/1999/xhtml" style="display: table-cell; white-space: nowrap; line-height: 1.5; max-width: 200px; text-align: center;"><span class="nodeLabel markdown-node-label"><p>ITEM-PEDIDO</p></span></div></foreignObject></g></g><g class="node default" id="my-svg-entity-PRODUTO-3" data-look="classic" transform="translate(380.625, 365.5)"><rect class="basic label-container" style="" x="-59.859375" y="-42" width="119.71875" height="84"/><g class="label" style="" transform="translate(-39.859375, -12)"><rect/><foreignObject width="79.71875" height="24"><div xmlns="http://www.w3.org/1999/xhtml" style="display: table-cell; white-space: nowrap; line-height: 1.5; max-width: 200px; text-align: center;"><span class="nodeLabel markdown-node-label"><p>PRODUTO</p></span></div></foreignObject></g></g></g></g></g><defs><filter id="my-svg-drop-shadow" height="130%" width="130%"><feDropShadow dx="4" dy="4" stdDeviation="0" flood-opacity="0.06" flood-color="#FFFFFF"/></filter></defs><defs><filter id="my-svg-drop-shadow-small" height="150%" width="150%"><feDropShadow dx="2" dy="2" stdDeviation="0" flood-opacity="0.06" flood-color="#FFFFFF"/></filter></defs><linearGradient id="my-svg-gradient" gradientUnits="objectBoundingBox" x1="0%" y1="0%" x2="100%" y2="0%"><stop offset="0%" stop-color="#cccccc" stop-opacity="1"/><stop offset="100%" stop-color="hsl(180, 0%, 18.3529411765%)" stop-opacity="1"/></linearGradient></svg>