<svg id="my-svg" width="100%" xmlns="http://www.w3.org/2000/svg" xmlns:xlink="http://www.w3.org/1999/xlink" class="classDiagram" style="max-width: 1507.98px; background-color: transparent;" viewBox="0 0 1507.9765625 1126" role="graphics-document document" aria-roledescription="classDiagram"><style>#my-svg{font-family:"trebuchet ms",verdana,arial,sans-serif;font-size:16px;fill:#ccc;}@keyframes edge-animation-frame{from{stroke-dashoffset:0;}}@keyframes dash{to{stroke-dashoffset:0;}}#my-svg .edge-animation-slow{stroke-dasharray:9,5!important;stroke-dashoffset:900;animation:dash 50s linear infinite;stroke-linecap:round;}#my-svg .edge-animation-fast{stroke-dasharray:9,5!important;stroke-dashoffset:900;animation:dash 20s linear infinite;stroke-linecap:round;}#my-svg .error-icon{fill:#a44141;}#my-svg .error-text{fill:#ddd;stroke:#ddd;}#my-svg .edge-thickness-normal{stroke-width:1px;}#my-svg .edge-thickness-thick{stroke-width:3.5px;}#my-svg .edge-pattern-solid{stroke-dasharray:0;}#my-svg .edge-thickness-invisible{stroke-width:0;fill:none;}#my-svg .edge-pattern-dashed{stroke-dasharray:3;}#my-svg .edge-pattern-dotted{stroke-dasharray:2;}#my-svg .marker{fill:lightgrey;stroke:lightgrey;}#my-svg .marker.cross{stroke:lightgrey;}#my-svg svg{font-family:"trebuchet ms",verdana,arial,sans-serif;font-size:16px;}#my-svg p{margin:0;}#my-svg g.classGroup text{fill:#ccc;stroke:none;font-family:"trebuchet ms",verdana,arial,sans-serif;font-size:10px;}#my-svg g.classGroup text .title{font-weight:bolder;}#my-svg .cluster-label text{fill:#F9FFFE;}#my-svg .cluster-label span{color:#F9FFFE;}#my-svg .cluster-label span p{background-color:transparent;}#my-svg .cluster rect{fill:hsl(180, 1.5873015873%, 28.3529411765%);stroke:rgba(255, 255, 255, 0.25);stroke-width:1px;}#my-svg .cluster text{fill:#F9FFFE;}#my-svg .cluster span{color:#F9FFFE;}#my-svg .nodeLabel,#my-svg .edgeLabel{color:#e0dfdf;}#my-svg .noteLabel .nodeLabel,#my-svg .noteLabel .edgeLabel{color:rgb(183.8476190475, 181.5523809523, 181.5523809523);}#my-svg .edgeLabel .label rect{fill:#1f2020;}#my-svg .label text{fill:#e0dfdf;}#my-svg .labelBkg{background:#1f2020;}#my-svg .edgeLabel .label span{background:#1f2020;}#my-svg .classTitle{font-weight:bolder;}#my-svg .node rect,#my-svg .node circle,#my-svg .node ellipse,#my-svg .node polygon,#my-svg .node path{fill:#1f2020;stroke:#ccc;stroke-width:1;}#my-svg .divider{stroke:#ccc;stroke-width:1;}#my-svg g.clickable{cursor:pointer;}#my-svg g.classGroup rect{fill:#1f2020;stroke:#ccc;}#my-svg g.classGroup line{stroke:#ccc;stroke-width:1;}#my-svg .classLabel .box{stroke:none;stroke-width:0;fill:#1f2020;opacity:0.5;}#my-svg .classLabel .label{fill:#ccc;font-size:10px;}#my-svg .relation{stroke:lightgrey;stroke-width:1;fill:none;}#my-svg .dashed-line{stroke-dasharray:3;}#my-svg .dotted-line{stroke-dasharray:1 2;}#my-svg [id$="-compositionStart"],#my-svg .composition{fill:lightgrey!important;stroke:lightgrey!important;stroke-width:1;}#my-svg [id$="-compositionEnd"],#my-svg .composition{fill:lightgrey!important;stroke:lightgrey!important;stroke-width:1;}#my-svg [id$="-dependencyStart"],#my-svg .dependency{fill:lightgrey!important;stroke:lightgrey!important;stroke-width:1;}#my-svg [id$="-dependencyEnd"],#my-svg .dependency{fill:lightgrey!important;stroke:lightgrey!important;stroke-width:1;}#my-svg [id$="-extensionStart"],#my-svg .extension{fill:transparent!important;stroke:lightgrey!important;stroke-width:1;}#my-svg [id$="-extensionEnd"],#my-svg .extension{fill:transparent!important;stroke:lightgrey!important;stroke-width:1;}#my-svg [id$="-aggregationStart"],#my-svg .aggregation{fill:transparent!important;stroke:lightgrey!important;stroke-width:1;}#my-svg [id$="-aggregationEnd"],#my-svg .aggregation{fill:transparent!important;stroke:lightgrey!important;stroke-width:1;}#my-svg [id$="-lollipopStart"],#my-svg .lollipop{fill:#1f2020!important;stroke:lightgrey!important;stroke-width:1;}#my-svg [id$="-lollipopEnd"],#my-svg .lollipop{fill:#1f2020!important;stroke:lightgrey!important;stroke-width:1;}#my-svg .edgeTerminals{font-size:11px;line-height:initial;}#my-svg .classTitleText{text-anchor:middle;font-size:18px;fill:#ccc;}#my-svg .edgeLabel[data-look="neo"]{background-color:hsl(0, 0%, 34.4117647059%);text-align:center;}#my-svg .edgeLabel[data-look="neo"] p{background-color:hsl(0, 0%, 34.4117647059%);}#my-svg .edgeLabel[data-look="neo"] rect{opacity:0.5;background-color:hsl(0, 0%, 34.4117647059%);fill:hsl(0, 0%, 34.4117647059%);}#my-svg .label-icon{display:inline-block;height:1em;overflow:visible;vertical-align:-0.125em;}#my-svg .node .label-icon path{fill:currentColor;stroke:revert;stroke-width:revert;}#my-svg .node .neo-node{stroke:#ccc;}#my-svg [data-look="neo"].node rect,#my-svg [data-look="neo"].cluster rect,#my-svg [data-look="neo"].node polygon{stroke:url(#my-svg-gradient);filter:drop-shadow( 1px 2px 2px rgba(185,185,185,1));}#my-svg [data-look="neo"].swimlane.cluster rect{filter:none;}#my-svg [data-look="neo"].node path{stroke:url(#my-svg-gradient);stroke-width:1px;}#my-svg [data-look="neo"].node .outer-path{filter:drop-shadow( 1px 2px 2px rgba(185,185,185,1));}#my-svg [data-look="neo"].node .neo-line path{stroke:#ccc;filter:none;}#my-svg [data-look="neo"].node circle{stroke:url(#my-svg-gradient);filter:drop-shadow( 1px 2px 2px rgba(185,185,185,1));}#my-svg [data-look="neo"].node circle .state-start{fill:#000000;}#my-svg [data-look="neo"].icon-shape .icon{fill:url(#my-svg-gradient);filter:drop-shadow( 1px 2px 2px rgba(185,185,185,1));}#my-svg [data-look="neo"].icon-shape .icon-neo path{stroke:url(#my-svg-gradient);filter:drop-shadow( 1px 2px 2px rgba(185,185,185,1));}#my-svg :root{--mermaid-font-family:"trebuchet ms",verdana,arial,sans-serif;}</style><g><defs><marker id="my-svg_classDiagram-aggregationStart" class="marker aggregation classDiagram" refX="18" refY="7" markerWidth="190" markerHeight="240" orient="auto" markerUnits="userSpaceOnUse"><path d="M 18,7 L9,13 L1,7 L9,1 Z"/></marker></defs><defs><marker id="my-svg_classDiagram-aggregationEnd" class="marker aggregation classDiagram" refX="1" refY="7" markerWidth="20" markerHeight="28" orient="auto" markerUnits="userSpaceOnUse"><path d="M 18,7 L9,13 L1,7 L9,1 Z"/></marker></defs><defs><marker id="my-svg_classDiagram-aggregationStart-margin" class="marker aggregation classDiagram" refX="15" refY="7" markerWidth="190" markerHeight="240" orient="auto" markerUnits="userSpaceOnUse"><path d="M 18,7 L9,13 L1,7 L9,1 Z" style="stroke-width: 2;"/></marker></defs><defs><marker id="my-svg_classDiagram-aggregationEnd-margin" class="marker aggregation classDiagram" refX="1" refY="7" markerWidth="20" markerHeight="28" orient="auto" markerUnits="userSpaceOnUse"><path d="M 18,7 L9,13 L1,7 L9,1 Z" style="stroke-width: 2;"/></marker></defs><defs><marker id="my-svg_classDiagram-extensionStart" class="marker extension classDiagram" refX="18" refY="7" markerWidth="20" markerHeight="28" orient="auto" markerUnits="userSpaceOnUse"><path d="M 1,7 L18,13 V 1 Z"/></marker></defs><defs><marker id="my-svg_classDiagram-extensionEnd" class="marker extension classDiagram" refX="1" refY="7" markerWidth="20" markerHeight="28" orient="auto" markerUnits="userSpaceOnUse"><path d="M 1,1 V 13 L18,7 Z"/></marker></defs><marker id="my-svg_classDiagram-extensionStart-margin" class="marker extension classDiagram" refX="18" refY="7" markerWidth="20" markerHeight="28" orient="auto" markerUnits="userSpaceOnUse" viewBox="0 0 20 14"><polygon points="10,7 18,13 18,1" style="stroke-width: 2; stroke-dasharray: 0;"/></marker><defs><marker id="my-svg_classDiagram-extensionEnd-margin" class="marker extension classDiagram" refX="9" refY="7" markerWidth="20" markerHeight="28" orient="auto" markerUnits="userSpaceOnUse" viewBox="0 0 20 14"><polygon points="10,1 10,13 18,7" style="stroke-width: 2; stroke-dasharray: 0;"/></marker></defs><defs><marker id="my-svg_classDiagram-compositionStart" class="marker composition classDiagram" refX="18" refY="7" markerWidth="190" markerHeight="240" orient="auto" markerUnits="userSpaceOnUse"><path d="M 18,7 L9,13 L1,7 L9,1 Z"/></marker></defs><defs><marker id="my-svg_classDiagram-compositionEnd" class="marker composition classDiagram" refX="1" refY="7" markerWidth="20" markerHeight="28" orient="auto" markerUnits="userSpaceOnUse"><path d="M 18,7 L9,13 L1,7 L9,1 Z"/></marker></defs><defs><marker id="my-svg_classDiagram-compositionStart-margin" class="marker composition classDiagram" refX="15" refY="7" markerWidth="190" markerHeight="240" orient="auto" markerUnits="userSpaceOnUse"><path viewBox="0 0 15 15" d="M 18,7 L9,13 L1,7 L9,1 Z" style="stroke-width: 0;"/></marker></defs><defs><marker id="my-svg_classDiagram-compositionEnd-margin" class="marker composition classDiagram" refX="3.5" refY="7" markerWidth="20" markerHeight="28" orient="auto" markerUnits="userSpaceOnUse"><path d="M 18,7 L9,13 L1,7 L9,1 Z" style="stroke-width: 0;"/></marker></defs><defs><marker id="my-svg_classDiagram-dependencyStart" class="marker dependency classDiagram" refX="6" refY="7" markerWidth="190" markerHeight="240" orient="auto" markerUnits="userSpaceOnUse"><path d="M 5,7 L9,13 L1,7 L9,1 Z"/></marker></defs><defs><marker id="my-svg_classDiagram-dependencyEnd" class="marker dependency classDiagram" refX="13" refY="7" markerWidth="20" markerHeight="28" orient="auto" markerUnits="userSpaceOnUse"><path d="M 18,7 L9,13 L14,7 L9,1 Z"/></marker></defs><defs><marker id="my-svg_classDiagram-dependencyStart-margin" class="marker dependency classDiagram" refX="4" refY="7" markerWidth="190" markerHeight="240" orient="auto" markerUnits="userSpaceOnUse"><path d="M 5,7 L9,13 L1,7 L9,1 Z" style="stroke-width: 0;"/></marker></defs><defs><marker id="my-svg_classDiagram-dependencyEnd-margin" class="marker dependency classDiagram" refX="16" refY="7" markerWidth="20" markerHeight="28" orient="auto" markerUnits="userSpaceOnUse"><path d="M 18,7 L9,13 L14,7 L9,1 Z" style="stroke-width: 0;"/></marker></defs><defs><marker id="my-svg_classDiagram-lollipopStart" class="marker lollipop classDiagram" refX="13" refY="7" markerWidth="190" markerHeight="240" orient="auto" markerUnits="userSpaceOnUse"><circle fill="transparent" cx="7" cy="7" r="6"/></marker></defs><defs><marker id="my-svg_classDiagram-lollipopEnd" class="marker lollipop classDiagram" refX="1" refY="7" markerWidth="190" markerHeight="240" orient="auto" markerUnits="userSpaceOnUse"><circle fill="transparent" cx="7" cy="7" r="6"/></marker></defs><defs><marker id="my-svg_classDiagram-lollipopStart-margin" class="marker lollipop classDiagram" refX="13" refY="7" markerWidth="190" markerHeight="240" orient="auto" markerUnits="userSpaceOnUse"><circle fill="transparent" cx="7" cy="7" r="6" stroke-width="2"/></marker></defs><defs><marker id="my-svg_classDiagram-lollipopEnd-margin" class="marker lollipop classDiagram" refX="1" refY="7" markerWidth="190" markerHeight="240" orient="auto" markerUnits="userSpaceOnUse"><circle fill="transparent" cx="7" cy="7" r="6" stroke-width="2"/></marker></defs><g class="root"><g class="clusters"/><g class="edgePaths"><path d="M709.074,265.25L709.074,268.542C709.074,271.833,709.074,278.417,709.074,287.875C709.074,297.333,709.074,309.667,709.074,315.833L709.074,322" id="my-svg-id_Usuario_Aluno_1" class="edge-thickness-normal edge-pattern-solid relation" style=";;;" data-edge="true" data-et="edge" data-id="id_Usuario_Aluno_1" data-points="W3sieCI6NzA5LjA3NDIxODc1LCJ5IjoyNDh9LHsieCI6NzA5LjA3NDIxODc1LCJ5IjoyODV9LHsieCI6NzA5LjA3NDIxODc1LCJ5IjozMjJ9XQ==" data-look="classic" marker-start="url(#my-svg_classDiagram-extensionStart)"/><path d="M854.86,168.976L923.659,188.314C992.458,207.651,1130.055,246.325,1198.854,271.829C1267.652,297.333,1267.652,309.667,1267.652,315.833L1267.652,322" id="my-svg-id_Usuario_Mentor_2" class="edge-thickness-normal edge-pattern-solid relation" style=";;;" data-edge="true" data-et="edge" data-id="id_Usuario_Mentor_2" data-points="W3sieCI6ODM4LjI1MzkwNjI1LCJ5IjoxNjQuMzA4NjM4MDAzODYwMjR9LHsieCI6MTI2Ny42NTIzNDM3NSwieSI6Mjg1fSx7IngiOjEyNjcuNjUyMzQzNzUsInkiOjMyMn1d" data-look="classic" marker-start="url(#my-svg_classDiagram-extensionStart)"/><path d="M579.895,167.483L515.814,187.07C451.733,206.656,323.572,245.828,259.491,272.206C195.41,298.583,195.41,312.167,195.41,318.958L195.41,325.75" id="my-svg-id_Usuario_INotificavel_3" class="edge-thickness-normal edge-pattern-dashed relation" style=";;;" data-edge="true" data-et="edge" data-id="id_Usuario_INotificavel_3" data-points="W3sieCI6NTc5Ljg5NDUzMTI1LCJ5IjoxNjcuNDgzNDE0MTk2NDEzNjN9LHsieCI6MTk1LjQxMDE1NjI1LCJ5IjoyODV9LHsieCI6MTk1LjQxMDE1NjI1LCJ5IjozNDN9XQ==" data-look="classic" marker-end="url(#my-svg_classDiagram-extensionEnd)"/><path d="M709.074,514L709.074,520.167C709.074,526.333,709.074,538.667,728.631,555.827C748.188,572.987,787.301,594.974,806.858,605.968L826.414,616.962" id="my-svg-id_Aluno_SolicitacaoMentoria_4" class="edge-thickness-normal edge-pattern-solid relation" style=";;;" data-edge="true" data-et="edge" data-id="id_Aluno_SolicitacaoMentoria_4" data-points="W3sieCI6NzA5LjA3NDIxODc1LCJ5Ijo1MTR9LHsieCI6NzA5LjA3NDIxODc1LCJ5Ijo1NTF9LHsieCI6ODMxLjY0NDUzMTI1LCJ5Ijo2MTkuOTAxODcxMzgxMDE3Nn1d" data-look="classic" marker-end="url(#my-svg_classDiagram-dependencyEnd)"/><path d="M1267.652,514L1267.652,520.167C1267.652,526.333,1267.652,538.667,1248.096,555.827C1228.539,572.987,1189.426,594.974,1169.869,605.968L1150.312,616.962" id="my-svg-id_Mentor_SolicitacaoMentoria_5" class="edge-thickness-normal edge-pattern-solid relation" style=";;;" data-edge="true" data-et="edge" data-id="id_Mentor_SolicitacaoMentoria_5" data-points="W3sieCI6MTI2Ny42NTIzNDM3NSwieSI6NTE0fSx7IngiOjEyNjcuNjUyMzQzNzUsInkiOjU1MX0seyJ4IjoxMTQ1LjA4MjAzMTI1LCJ5Ijo2MTkuOTAxODcxMzgxMDE3Nn1d" data-look="classic" marker-end="url(#my-svg_classDiagram-dependencyEnd)"/><path d="M988.363,845.25L988.363,848.542C988.363,851.833,988.363,858.417,988.363,867.875C988.363,877.333,988.363,889.667,988.363,895.833L988.363,902" id="my-svg-id_SolicitacaoMentoria_SessaoMentoria_6" class="edge-thickness-normal edge-pattern-solid relation" style=";;;" data-edge="true" data-et="edge" data-id="id_SolicitacaoMentoria_SessaoMentoria_6" data-points="W3sieCI6OTg4LjM2MzI4MTI1LCJ5Ijo4Mjh9LHsieCI6OTg4LjM2MzI4MTI1LCJ5Ijo4NjV9LHsieCI6OTg4LjM2MzI4MTI1LCJ5Ijo5MDJ9XQ==" data-look="classic" marker-start="url(#my-svg_classDiagram-compositionStart)"/></g><g class="edgeLabels"><g class="edgeLabel" transform="translate(709.07421875, 285)"><g class="label" data-id="id_Usuario_Aluno_1" transform="translate(-32.9140625, -12)"><foreignObject width="65.828125" height="24"><div xmlns="http://www.w3.org/1999/xhtml" class="labelBkg" style="display: table-cell; white-space: nowrap; line-height: 1.5; max-width: 200px; text-align: center;"><span class="edgeLabel"><p>Herda de</p></span></div></foreignObject></g></g><g class="edgeLabel" transform="translate(1267.65234375, 285)"><g class="label" data-id="id_Usuario_Mentor_2" transform="translate(-32.9140625, -12)"><foreignObject width="65.828125" height="24"><div xmlns="http://www.w3.org/1999/xhtml" class="labelBkg" style="display: table-cell; white-space: nowrap; line-height: 1.5; max-width: 200px; text-align: center;"><span class="edgeLabel"><p>Herda de</p></span></div></foreignObject></g></g><g class="edgeLabel" transform="translate(195.41015625, 285)"><g class="label" data-id="id_Usuario_INotificavel_3" transform="translate(-41.796875, -12)"><foreignObject width="83.59375" height="24"><div xmlns="http://www.w3.org/1999/xhtml" class="labelBkg" style="display: table-cell; white-space: nowrap; line-height: 1.5; max-width: 200px; text-align: center;"><span class="edgeLabel"><p>Implementa</p></span></div></foreignObject></g></g><g class="edgeLabel" transform="translate(709.07421875, 551)"><g class="label" data-id="id_Aluno_SolicitacaoMentoria_4" transform="translate(-26.6796875, -12)"><foreignObject width="53.359375" height="24"><div xmlns="http://www.w3.org/1999/xhtml" class="labelBkg" style="display: table-cell; white-space: nowrap; line-height: 1.5; max-width: 200px; text-align: center;"><span class="edgeLabel"><p>Realiza</p></span></div></foreignObject></g></g><g class="edgeLabel" transform="translate(1267.65234375, 551)"><g class="label" data-id="id_Mentor_SolicitacaoMentoria_5" transform="translate(-21.6484375, -12)"><foreignObject width="43.296875" height="24"><div xmlns="http://www.w3.org/1999/xhtml" class="labelBkg" style="display: table-cell; white-space: nowrap; line-height: 1.5; max-width: 200px; text-align: center;"><span class="edgeLabel"><p>Avalia</p></span></div></foreignObject></g></g><g class="edgeLabel" transform="translate(988.36328125, 865)"><g class="label" data-id="id_SolicitacaoMentoria_SessaoMentoria_6" transform="translate(-82.2890625, -12)"><foreignObject width="164.578125" height="24"><div xmlns="http://www.w3.org/1999/xhtml" class="labelBkg" style="display: table-cell; white-space: nowrap; line-height: 1.5; max-width: 200px; text-align: center;"><span class="edgeLabel"><p>Gera quando aprovada</p></span></div></foreignObject></g></g><g class="edgeTerminals" transform="translate(694.074219375, 531.5000005357143)"><g class="inner" transform="translate(-3.0625, -8.25)"><foreignObject width="6.125" height="16.5" style="width: 9px; height: 12px;"><div xmlns="http://www.w3.org/1999/xhtml" style="display: table-cell; white-space: nowrap; line-height: 1.5;"><span class="edgeLabel"><p>1</p></span></div></foreignObject></g></g><g class="edgeTerminals" transform="translate(1252.652341875, 531.4999983928572)"><g class="inner" transform="translate(-3.0625, -8.25)"><foreignObject width="6.125" height="16.5" style="width: 9px; height: 12px;"><div xmlns="http://www.w3.org/1999/xhtml" style="display: table-cell; white-space: nowrap; line-height: 1.5;"><span class="edgeLabel"><p>1</p></span></div></foreignObject></g></g><g class="edgeTerminals" transform="translate(973.363280625, 845.4999994642857)"><g class="inner" transform="translate(-3.0625, -8.25)"><foreignObject width="6.125" height="16.5" style="width: 9px; height: 12px;"><div xmlns="http://www.w3.org/1999/xhtml" style="display: table-cell; white-space: nowrap; line-height: 1.5;"><span class="edgeLabel"><p>1</p></span></div></foreignObject></g></g><g class="edgeTerminals" transform="translate(818.7399831324967, 593.2508201605627)"><g class="inner" transform="translate(-13.453125, -8.25)"/><foreignObject width="26.90625" height="16.5" style="width: 36px; height: 12px;"><div xmlns="http://www.w3.org/1999/xhtml" style="display: table-cell; white-space: nowrap; line-height: 1.5;"><span class="edgeLabel"><p>many</p></span></div></foreignObject></g><g class="edgeTerminals" transform="translate(1162.6872967594882, 619.4020919922797)"><g class="inner" transform="translate(-13.453125, -8.25)"/><foreignObject width="26.90625" height="16.5" style="width: 36px; height: 12px;"><div xmlns="http://www.w3.org/1999/xhtml" style="display: table-cell; white-space: nowrap; line-height: 1.5;"><span class="edgeLabel"><p>many</p></span></div></foreignObject></g><g class="edgeTerminals" transform="translate(998.363280625, 879.4999994642857)"><g class="inner" transform="translate(-9.1796875, -8.25)"/><foreignObject width="18.359375" height="16.5" style="width: 36px; height: 12px;"><div xmlns="http://www.w3.org/1999/xhtml" style="display: table-cell; white-space: nowrap; line-height: 1.5;"><span class="edgeLabel"><p>0..1</p></span></div></foreignObject></g></g><g class="nodes"><g class="node default" id="my-svg-classId-INotificavel-0" data-look="classic" transform="translate(195.41015625, 418)"><g class="basic label-container outer-path"><path d="M-187.41015625 -75 L187.41015625 -75 L187.41015625 75 L-187.41015625 75" stroke="none" stroke-width="0" fill="#1f2020" style=""/><path d="M-187.41015625 -75 C-65.22976433256146 -75, 56.95062758487708 -75, 187.41015625 -75 M-187.41015625 -75 C-99.1649997635954 -75, -10.919843277190807 -75, 187.41015625 -75 M187.41015625 -75 C187.41015625 -30.92471489461819, 187.41015625 13.150570210763618, 187.41015625 75 M187.41015625 -75 C187.41015625 -39.74428220277896, 187.41015625 -4.4885644055579235, 187.41015625 75 M187.41015625 75 C61.45666662716769 75, -64.49682299566462 75, -187.41015625 75 M187.41015625 75 C102.77941935162647 75, 18.148682453252945 75, -187.41015625 75 M-187.41015625 75 C-187.41015625 26.571254706787286, -187.41015625 -21.857490586425428, -187.41015625 -75 M-187.41015625 75 C-187.41015625 40.99999269865226, -187.41015625 6.999985397304513, -187.41015625 -75" stroke="#ccc" stroke-width="1.3" fill="none" stroke-dasharray="0 0" style=""/></g><g class="annotation-group text" transform="translate(-39.5859375, -51)"><g class="label" style="" transform="translate(0,-12)"><foreignObject width="79.171875" height="24"><div xmlns="http://www.w3.org/1999/xhtml" style="display: table-cell; white-space: nowrap; line-height: 1.5; max-width: 122px; text-align: center;"><span class="nodeLabel markdown-node-label" style=""><p>«interface»</p></span></div></foreignObject></g></g><g class="label-group text" transform="translate(-42.6796875, -27)"><g class="label" style="font-weight: bolder" transform="translate(0,-12)"><foreignObject width="85.359375" height="24"><div xmlns="http://www.w3.org/1999/xhtml" style="display: table-cell; white-space: nowrap; line-height: 1.5; max-width: 128px; text-align: center;"><span class="nodeLabel markdown-node-label" style=""><p>INotificavel</p></span></div></foreignObject></g></g><g class="members-group text" transform="translate(-175.41015625, 21)"/><g class="methods-group text" transform="translate(-175.41015625, 51)"><g class="label" style="" transform="translate(0,-12)"><foreignObject width="308.140625" height="24"><div xmlns="http://www.w3.org/1999/xhtml" style="display: table-cell; white-space: nowrap; line-height: 1.5; max-width: 338px; text-align: center;"><span class="nodeLabel markdown-node-label" style=""><p>+enviarNotificacao(string mensagem) : void</p></span></div></foreignObject></g></g><g class="divider" style=""><path d="M-187.41015625 -3 C-79.1860574107756 -2.999711264050453, 29.038041428448793 -2.9994225281009057, 187.41015625 -2.999 M-187.41015625 -3 C-79.6268013193977 -2.9997124399309856, 28.1565536112046 -2.9994248798619707, 187.41015625 -2.999" stroke="#ccc" stroke-width="1.3" fill="none" stroke-dasharray="0 0" style=""/></g><g class="divider" style=""><path d="M-187.41015625 21 C-51.74657858488152 21.00036194297145, 83.91699908023696 21.000723885942897, 187.41015625 21.001 M-187.41015625 21 C-62.675451014303405 21.00033278534027, 62.05925422139319 21.000665570680543, 187.41015625 21.001" stroke="#ccc" stroke-width="1.3" fill="none" stroke-dasharray="0 0" style=""/></g></g><g class="node default" id="my-svg-classId-Usuario-1" data-look="classic" transform="translate(709.07421875, 128)"><g class="basic label-container outer-path"><path d="M-129.1796875 -120 L129.1796875 -120 L129.1796875 120 L-129.1796875 120" stroke="none" stroke-width="0" fill="#1f2020" style=""/><path d="M-129.1796875 -120 C-43.7054124275234 -120, 41.7688626449532 -120, 129.1796875 -120 M-129.1796875 -120 C-62.69778629911232 -120, 3.7841149017753537 -120, 129.1796875 -120 M129.1796875 -120 C129.1796875 -48.146194035969515, 129.1796875 23.70761192806097, 129.1796875 120 M129.1796875 -120 C129.1796875 -32.49914969176645, 129.1796875 55.001700616467105, 129.1796875 120 M129.1796875 120 C77.2578646871118 120, 25.336041874223596 120, -129.1796875 120 M129.1796875 120 C36.32838038816918 120, -56.52292672366164 120, -129.1796875 120 M-129.1796875 120 C-129.1796875 56.92676448223616, -129.1796875 -6.146471035527682, -129.1796875 -120 M-129.1796875 120 C-129.1796875 32.333326391984954, -129.1796875 -55.33334721603009, -129.1796875 -120" stroke="#ccc" stroke-width="1.3" fill="none" stroke-dasharray="0 0" style=""/></g><g class="annotation-group text" transform="translate(-37.359375, -96)"><g class="label" style="" transform="translate(0,-12)"><foreignObject width="74.71875" height="24"><div xmlns="http://www.w3.org/1999/xhtml" style="display: table-cell; white-space: nowrap; line-height: 1.5; max-width: 116px; text-align: center;"><span class="nodeLabel markdown-node-label" style=""><p>«abstract»</p></span></div></foreignObject></g></g><g class="label-group text" transform="translate(-29.7890625, -72)"><g class="label" style="font-weight: bolder" transform="translate(0,-12)"><foreignObject width="59.578125" height="24"><div xmlns="http://www.w3.org/1999/xhtml" style="display: table-cell; white-space: nowrap; line-height: 1.5; max-width: 101px; text-align: center;"><span class="nodeLabel markdown-node-label" style=""><p>Usuario</p></span></div></foreignObject></g></g><g class="members-group text" transform="translate(-117.1796875, -24)"><g class="label" style="" transform="translate(0,-12)"><foreignObject width="39.125" height="24"><div xmlns="http://www.w3.org/1999/xhtml" style="display: table-cell; white-space: nowrap; line-height: 1.5; max-width: 93px; text-align: center;"><span class="nodeLabel markdown-node-label" style=""><p>-int id</p></span></div></foreignObject></g><g class="label" style="" transform="translate(0,12)"><foreignObject width="92.5" height="24"><div xmlns="http://www.w3.org/1999/xhtml" style="display: table-cell; white-space: nowrap; line-height: 1.5; max-width: 138px; text-align: center;"><span class="nodeLabel markdown-node-label" style=""><p>#string nome</p></span></div></foreignObject></g><g class="label" style="" transform="translate(0,36)"><foreignObject width="90.703125" height="24"><div xmlns="http://www.w3.org/1999/xhtml" style="display: table-cell; white-space: nowrap; line-height: 1.5; max-width: 139px; text-align: center;"><span class="nodeLabel markdown-node-label" style=""><p>#string email</p></span></div></foreignObject></g><g class="label" style="" transform="translate(0,60)"><foreignObject width="117.375" height="24"><div xmlns="http://www.w3.org/1999/xhtml" style="display: table-cell; white-space: nowrap; line-height: 1.5; max-width: 163px; text-align: center;"><span class="nodeLabel markdown-node-label" style=""><p>#string matricula</p></span></div></foreignObject></g></g><g class="methods-group text" transform="translate(-117.1796875, 96)"><g class="label" style="" transform="translate(0,-12)"><foreignObject width="197" height="24"><div xmlns="http://www.w3.org/1999/xhtml" style="display: table-cell; white-space: nowrap; line-height: 1.5; max-width: 234px; text-align: center;"><span class="nodeLabel markdown-node-label" style=""><p>+getDadosContato() : string</p></span></div></foreignObject></g></g><g class="divider" style=""><path d="M-129.1796875 -48 C-57.23034647610491 -47.99972151449498, 14.718994547790174 -47.99944302898996, 129.1796875 -47.999 M-129.1796875 -48 C-59.164686496353895 -47.99972900150806, 10.850314507292211 -47.99945800301612, 129.1796875 -47.999" stroke="#ccc" stroke-width="1.3" fill="none" stroke-dasharray="0 0" style=""/></g><g class="divider" style=""><path d="M-129.1796875 72 C-69.99969307013477 72.0002290607586, -10.819698640269536 72.00045812151721, 129.1796875 72.001 M-129.1796875 72 C-32.591207225769836 72.00037385320456, 63.99727304846033 72.00074770640914, 129.1796875 72.001" stroke="#ccc" stroke-width="1.3" fill="none" stroke-dasharray="0 0" style=""/></g></g><g class="node default" id="my-svg-classId-Aluno-2" data-look="classic" transform="translate(709.07421875, 418)"><g class="basic label-container outer-path"><path d="M-276.25390625 -96 L276.25390625 -96 L276.25390625 96 L-276.25390625 96" stroke="none" stroke-width="0" fill="#1f2020" style=""/><path d="M-276.25390625 -96 C-139.93661535220846 -96, -3.619324454416926 -96, 276.25390625 -96 M-276.25390625 -96 C-135.07782861212908 -96, 6.098249025741836 -96, 276.25390625 -96 M276.25390625 -96 C276.25390625 -31.280467947861638, 276.25390625 33.439064104276724, 276.25390625 96 M276.25390625 -96 C276.25390625 -35.97743829398679, 276.25390625 24.045123412026413, 276.25390625 96 M276.25390625 96 C150.9197188916117 96, 25.585531533223417 96, -276.25390625 96 M276.25390625 96 C56.18641228116303 96, -163.88108168767394 96, -276.25390625 96 M-276.25390625 96 C-276.25390625 20.89631714949337, -276.25390625 -54.20736570101326, -276.25390625 -96 M-276.25390625 96 C-276.25390625 34.41954437977759, -276.25390625 -27.16091124044482, -276.25390625 -96" stroke="#ccc" stroke-width="1.3" fill="none" stroke-dasharray="0 0" style=""/></g><g class="annotation-group text" transform="translate(0, -72)"/><g class="label-group text" transform="translate(-22.6640625, -72)"><g class="label" style="font-weight: bolder" transform="translate(0,-12)"><foreignObject width="45.328125" height="24"><div xmlns="http://www.w3.org/1999/xhtml" style="display: table-cell; white-space: nowrap; line-height: 1.5; max-width: 90px; text-align: center;"><span class="nodeLabel markdown-node-label" style=""><p>Aluno</p></span></div></foreignObject></g></g><g class="members-group text" transform="translate(-264.25390625, -24)"><g class="label" style="" transform="translate(0,-12)"><foreignObject width="88.03125" height="24"><div xmlns="http://www.w3.org/1999/xhtml" style="display: table-cell; white-space: nowrap; line-height: 1.5; max-width: 135px; text-align: center;"><span class="nodeLabel markdown-node-label" style=""><p>-string curso</p></span></div></foreignObject></g><g class="label" style="" transform="translate(0,12)"><foreignObject width="80.046875" height="24"><div xmlns="http://www.w3.org/1999/xhtml" style="display: table-cell; white-space: nowrap; line-height: 1.5; max-width: 130px; text-align: center;"><span class="nodeLabel markdown-node-label" style=""><p>-int periodo</p></span></div></foreignObject></g></g><g class="methods-group text" transform="translate(-264.25390625, 48)"><g class="label" style="" transform="translate(0,-12)"><foreignObject width="505.84375" height="24"><div xmlns="http://www.w3.org/1999/xhtml" style="display: table-cell; white-space: nowrap; line-height: 1.5; max-width: 524px; text-align: center;"><span class="nodeLabel markdown-node-label" style=""><p>+solicitarMentoria(Mentor mentor, DateTime data) : SolicitacaoMentoria</p></span></div></foreignObject></g><g class="label" style="" transform="translate(0,12)"><foreignObject width="395.328125" height="24"><div xmlns="http://www.w3.org/1999/xhtml" style="display: table-cell; white-space: nowrap; line-height: 1.5; max-width: 406px; text-align: center;"><span class="nodeLabel markdown-node-label" style=""><p>+avaliarSessao(SessaoMentoria sessao, int nota) : void</p></span></div></foreignObject></g></g><g class="divider" style=""><path d="M-276.25390625 -48 C-116.69362449113484 -47.99971120719355, 42.86665726773032 -47.9994224143871, 276.25390625 -47.999 M-276.25390625 -48 C-80.25342545026348 -47.99964525301477, 115.74705534947304 -47.999290506029546, 276.25390625 -47.999" stroke="#ccc" stroke-width="1.3" fill="none" stroke-dasharray="0 0" style=""/></g><g class="divider" style=""><path d="M-276.25390625 24 C-84.76335545323667 24.000346584331414, 106.72719534352666 24.00069316866283, 276.25390625 24.001 M-276.25390625 24 C-95.91266738100904 24.000326404866662, 84.42857148798191 24.000652809733324, 276.25390625 24.001" stroke="#ccc" stroke-width="1.3" fill="none" stroke-dasharray="0 0" style=""/></g></g><g class="node default" id="my-svg-classId-Mentor-3" data-look="classic" transform="translate(1267.65234375, 418)"><g class="basic label-container outer-path"><path d="M-232.32421875 -96 L232.32421875 -96 L232.32421875 96 L-232.32421875 96" stroke="none" stroke-width="0" fill="#1f2020" style=""/><path d="M-232.32421875 -96 C-73.18987742106731 -96, 85.94446390786538 -96, 232.32421875 -96 M-232.32421875 -96 C-51.45876845326103 -96, 129.40668184347794 -96, 232.32421875 -96 M232.32421875 -96 C232.32421875 -53.595821135888386, 232.32421875 -11.191642271776772, 232.32421875 96 M232.32421875 -96 C232.32421875 -21.828186243169682, 232.32421875 52.343627513660635, 232.32421875 96 M232.32421875 96 C119.03946767481524 96, 5.754716599630484 96, -232.32421875 96 M232.32421875 96 C130.76997547319934 96, 29.215732196398676 96, -232.32421875 96 M-232.32421875 96 C-232.32421875 28.19619233851745, -232.32421875 -39.6076153229651, -232.32421875 -96 M-232.32421875 96 C-232.32421875 40.399831913161734, -232.32421875 -15.200336173676533, -232.32421875 -96" stroke="#ccc" stroke-width="1.3" fill="none" stroke-dasharray="0 0" style=""/></g><g class="annotation-group text" transform="translate(0, -72)"/><g class="label-group text" transform="translate(-26.6640625, -72)"><g class="label" style="font-weight: bolder" transform="translate(0,-12)"><foreignObject width="53.328125" height="24"><div xmlns="http://www.w3.org/1999/xhtml" style="display: table-cell; white-space: nowrap; line-height: 1.5; max-width: 98px; text-align: center;"><span class="nodeLabel markdown-node-label" style=""><p>Mentor</p></span></div></foreignObject></g></g><g class="members-group text" transform="translate(-220.32421875, -24)"><g class="label" style="" transform="translate(0,-12)"><foreignObject width="180.546875" height="24"><div xmlns="http://www.w3.org/1999/xhtml" style="display: table-cell; white-space: nowrap; line-height: 1.5; max-width: 216px; text-align: center;"><span class="nodeLabel markdown-node-label" style=""><p>-string areaEspecialidade</p></span></div></foreignObject></g><g class="label" style="" transform="translate(0,12)"><foreignObject width="112.9375" height="24"><div xmlns="http://www.w3.org/1999/xhtml" style="display: table-cell; white-space: nowrap; line-height: 1.5; max-width: 164px; text-align: center;"><span class="nodeLabel markdown-node-label" style=""><p>-int limiteAlunos</p></span></div></foreignObject></g></g><g class="methods-group text" transform="translate(-220.32421875, 48)"><g class="label" style="" transform="translate(0,-12)"><foreignObject width="413.984375" height="24"><div xmlns="http://www.w3.org/1999/xhtml" style="display: table-cell; white-space: nowrap; line-height: 1.5; max-width: 438px; text-align: center;"><span class="nodeLabel markdown-node-label" style=""><p>+aprovarSolicitacao(SolicitacaoMentoria solicitacao) : bool</p></span></div></foreignObject></g><g class="label" style="" transform="translate(0,12)"><foreignObject width="360.90625" height="24"><div xmlns="http://www.w3.org/1999/xhtml" style="display: table-cell; white-space: nowrap; line-height: 1.5; max-width: 389px; text-align: center;"><span class="nodeLabel markdown-node-label" style=""><p>+cadastrarDisponibilidade(DateTime horario) : void</p></span></div></foreignObject></g></g><g class="divider" style=""><path d="M-232.32421875 -48 C-102.72754538045118 -47.9997210866046, 26.86912798909765 -47.999442173209204, 232.32421875 -47.999 M-232.32421875 -48 C-125.935864037395 -47.99977103473051, -19.547509324790013 -47.999542069461015, 232.32421875 -47.999" stroke="#ccc" stroke-width="1.3" fill="none" stroke-dasharray="0 0" style=""/></g><g class="divider" style=""><path d="M-232.32421875 24 C-103.06013076694663 24.000278197616844, 26.203957216106744 24.00055639523369, 232.32421875 24.001 M-232.32421875 24 C-100.2918509894516 24.00028415541107, 31.740516771096793 24.00056831082214, 232.32421875 24.001" stroke="#ccc" stroke-width="1.3" fill="none" stroke-dasharray="0 0" style=""/></g></g><g class="node default" id="my-svg-classId-SolicitacaoMentoria-4" data-look="classic" transform="translate(988.36328125, 708)"><g class="basic label-container outer-path"><path d="M-156.71875 -120 L156.71875 -120 L156.71875 120 L-156.71875 120" stroke="none" stroke-width="0" fill="#1f2020" style=""/><path d="M-156.71875 -120 C-44.542330663163696 -120, 67.63408867367261 -120, 156.71875 -120 M-156.71875 -120 C-36.90052510608726 -120, 82.91769978782548 -120, 156.71875 -120 M156.71875 -120 C156.71875 -50.735780915418985, 156.71875 18.52843816916203, 156.71875 120 M156.71875 -120 C156.71875 -42.63932221108146, 156.71875 34.72135557783707, 156.71875 120 M156.71875 120 C90.6832820403372 120, 24.647814080674408 120, -156.71875 120 M156.71875 120 C87.44219482315603 120, 18.16563964631206 120, -156.71875 120 M-156.71875 120 C-156.71875 54.053941392567, -156.71875 -11.892117214866005, -156.71875 -120 M-156.71875 120 C-156.71875 41.853928077012526, -156.71875 -36.29214384597495, -156.71875 -120" stroke="#ccc" stroke-width="1.3" fill="none" stroke-dasharray="0 0" style=""/></g><g class="annotation-group text" transform="translate(0, -96)"/><g class="label-group text" transform="translate(-75.578125, -96)"><g class="label" style="font-weight: bolder" transform="translate(0,-12)"><foreignObject width="151.15625" height="24"><div xmlns="http://www.w3.org/1999/xhtml" style="display: table-cell; white-space: nowrap; line-height: 1.5; max-width: 180px; text-align: center;"><span class="nodeLabel markdown-node-label" style=""><p>SolicitacaoMentoria</p></span></div></foreignObject></g></g><g class="members-group text" transform="translate(-144.71875, -48)"><g class="label" style="" transform="translate(0,-12)"><foreignObject width="39.125" height="24"><div xmlns="http://www.w3.org/1999/xhtml" style="display: table-cell; white-space: nowrap; line-height: 1.5; max-width: 93px; text-align: center;"><span class="nodeLabel markdown-node-label" style=""><p>-int id</p></span></div></foreignObject></g><g class="label" style="" transform="translate(0,12)"><foreignObject width="182.640625" height="24"><div xmlns="http://www.w3.org/1999/xhtml" style="display: table-cell; white-space: nowrap; line-height: 1.5; max-width: 219px; text-align: center;"><span class="nodeLabel markdown-node-label" style=""><p>-DateTime dataAgendada</p></span></div></foreignObject></g><g class="label" style="" transform="translate(0,36)"><foreignObject width="91.59375" height="24"><div xmlns="http://www.w3.org/1999/xhtml" style="display: table-cell; white-space: nowrap; line-height: 1.5; max-width: 137px; text-align: center;"><span class="nodeLabel markdown-node-label" style=""><p>-string status</p></span></div></foreignObject></g><g class="label" style="" transform="translate(0,60)"><foreignObject width="104.046875" height="24"><div xmlns="http://www.w3.org/1999/xhtml" style="display: table-cell; white-space: nowrap; line-height: 1.5; max-width: 153px; text-align: center;"><span class="nodeLabel markdown-node-label" style=""><p>-string objetivo</p></span></div></foreignObject></g></g><g class="methods-group text" transform="translate(-144.71875, 72)"><g class="label" style="" transform="translate(0,-12)"><foreignObject width="129.375" height="24"><div xmlns="http://www.w3.org/1999/xhtml" style="display: table-cell; white-space: nowrap; line-height: 1.5; max-width: 178px; text-align: center;"><span class="nodeLabel markdown-node-label" style=""><p>+confirmar() : void</p></span></div></foreignObject></g><g class="label" style="" transform="translate(0,12)"><foreignObject width="213.859375" height="24"><div xmlns="http://www.w3.org/1999/xhtml" style="display: table-cell; white-space: nowrap; line-height: 1.5; max-width: 254px; text-align: center;"><span class="nodeLabel markdown-node-label" style=""><p>+cancelar(string motivo) : void</p></span></div></foreignObject></g></g><g class="divider" style=""><path d="M-156.71875 -72 C-55.88183550772666 -71.99967828701259, 44.955078984546674 -71.99935657402517, 156.71875 -71.999 M-156.71875 -72 C-79.57936297507402 -71.99975389228466, -2.439975950148039 -71.99950778456933, 156.71875 -71.999" stroke="#ccc" stroke-width="1.3" fill="none" stroke-dasharray="0 0" style=""/></g><g class="divider" style=""><path d="M-156.71875 48 C-37.95909412017015 48.00037889421617, 80.8005617596597 48.00075778843233, 156.71875 48.001 M-156.71875 48 C-76.02700921672165 48.00025744124677, 4.664731566556696 48.00051488249353, 156.71875 48.001" stroke="#ccc" stroke-width="1.3" fill="none" stroke-dasharray="0 0" style=""/></g></g><g class="node default" id="my-svg-classId-SessaoMentoria-5" data-look="classic" transform="translate(988.36328125, 1010)"><g class="basic label-container outer-path"><path d="M-131.609375 -108 L131.609375 -108 L131.609375 108 L-131.609375 108" stroke="none" stroke-width="0" fill="#1f2020" style=""/><path d="M-131.609375 -108 C-77.0030342399509 -108, -22.396693479901813 -108, 131.609375 -108 M-131.609375 -108 C-37.85995311013012 -108, 55.88946877973976 -108, 131.609375 -108 M131.609375 -108 C131.609375 -52.841640827333485, 131.609375 2.3167183453330296, 131.609375 108 M131.609375 -108 C131.609375 -29.97457601243069, 131.609375 48.05084797513862, 131.609375 108 M131.609375 108 C70.7326003332042 108, 9.855825666408407 108, -131.609375 108 M131.609375 108 C76.92365766827683 108, 22.237940336553663 108, -131.609375 108 M-131.609375 108 C-131.609375 38.545115066604836, -131.609375 -30.909769866790327, -131.609375 -108 M-131.609375 108 C-131.609375 57.302865258896844, -131.609375 6.605730517793688, -131.609375 -108" stroke="#ccc" stroke-width="1.3" fill="none" stroke-dasharray="0 0" style=""/></g><g class="annotation-group text" transform="translate(0, -84)"/><g class="label-group text" transform="translate(-61.359375, -84)"><g class="label" style="font-weight: bolder" transform="translate(0,-12)"><foreignObject width="122.71875" height="24"><div xmlns="http://www.w3.org/1999/xhtml" style="display: table-cell; white-space: nowrap; line-height: 1.5; max-width: 152px; text-align: center;"><span class="nodeLabel markdown-node-label" style=""><p>SessaoMentoria</p></span></div></foreignObject></g></g><g class="members-group text" transform="translate(-119.609375, -36)"><g class="label" style="" transform="translate(0,-12)"><foreignObject width="39.125" height="24"><div xmlns="http://www.w3.org/1999/xhtml" style="display: table-cell; white-space: nowrap; line-height: 1.5; max-width: 93px; text-align: center;"><span class="nodeLabel markdown-node-label" style=""><p>-int id</p></span></div></foreignObject></g><g class="label" style="" transform="translate(0,12)"><foreignObject width="150" height="24"><div xmlns="http://www.w3.org/1999/xhtml" style="display: table-cell; white-space: nowrap; line-height: 1.5; max-width: 198px; text-align: center;"><span class="nodeLabel markdown-node-label" style=""><p>-string linkSalaVirtual</p></span></div></foreignObject></g><g class="label" style="" transform="translate(0,36)"><foreignObject width="177.859375" height="24"><div xmlns="http://www.w3.org/1999/xhtml" style="display: table-cell; white-space: nowrap; line-height: 1.5; max-width: 215px; text-align: center;"><span class="nodeLabel markdown-node-label" style=""><p>-string resumoAnotacoes</p></span></div></foreignObject></g></g><g class="methods-group text" transform="translate(-119.609375, 60)"><g class="label" style="" transform="translate(0,-12)"><foreignObject width="157.84375" height="24"><div xmlns="http://www.w3.org/1999/xhtml" style="display: table-cell; white-space: nowrap; line-height: 1.5; max-width: 199px; text-align: center;"><span class="nodeLabel markdown-node-label" style=""><p>+iniciarSessao() : void</p></span></div></foreignObject></g><g class="label" style="" transform="translate(0,12)"><foreignObject width="171.1875" height="24"><div xmlns="http://www.w3.org/1999/xhtml" style="display: table-cell; white-space: nowrap; line-height: 1.5; max-width: 212px; text-align: center;"><span class="nodeLabel markdown-node-label" style=""><p>+finalizarSessao() : void</p></span></div></foreignObject></g></g><g class="divider" style=""><path d="M-131.609375 -60 C-58.899275001715466 -59.99972376549923, 13.810824996569067 -59.999447530998474, 131.609375 -59.999 M-131.609375 -60 C-27.54788143871049 -59.99960465774736, 76.51361212257902 -59.99920931549473, 131.609375 -59.999" stroke="#ccc" stroke-width="1.3" fill="none" stroke-dasharray="0 0" style=""/></g><g class="divider" style=""><path d="M-131.609375 36 C-67.82405051144869 36.00024232819466, -4.038726022897393 36.000484656389325, 131.609375 36.001 M-131.609375 36 C-30.4722130627228 36.000384232361625, 70.6649488745544 36.00076846472325, 131.609375 36.001" stroke="#ccc" stroke-width="1.3" fill="none" stroke-dasharray="0 0" style=""/></g></g></g></g></g><defs><filter id="my-svg-drop-shadow" height="130%" width="130%"><feDropShadow dx="4" dy="4" stdDeviation="0" flood-opacity="0.06" flood-color="#FFFFFF"/></filter></defs><defs><filter id="my-svg-drop-shadow-small" height="150%" width="150%"><feDropShadow dx="2" dy="2" stdDeviation="0" flood-opacity="0.06" flood-color="#FFFFFF"/></filter></defs><linearGradient id="my-svg-gradient" gradientUnits="objectBoundingBox" x1="0%" y1="0%" x2="100%" y2="0%"><stop offset="0%" stop-color="#cccccc" stop-opacity="1"/><stop offset="100%" stop-color="hsl(180, 0%, 18.3529411765%)" stop-opacity="1"/></linearGradient></svg>