<svg id="my-svg" width="100%" xmlns="http://www.w3.org/2000/svg" xmlns:xlink="http://www.w3.org/1999/xlink" class="classDiagram" style="max-width: 1507.98px; background-color: transparent;" viewBox="0 0 1507.9765625 1126" role="graphics-document document" aria-roledescription="classDiagram"><style>#my-svg{font-family:"trebuchet ms",verdana,arial,sans-serif;font-size:16px;fill:#ccc;}@keyframes edge-animation-frame{from{stroke-dashoffset:0;}}@keyframes dash{to{stroke-dashoffset:0;}}#my-svg .edge-animation-slow{stroke-dasharray:9,5!important;stroke-dashoffset:900;animation:dash 50s linear infinite;stroke-linecap:round;}#my-svg .edge-animation-fast{stroke-dasharray:9,5!important;stroke-dashoffset:900;animation:dash 20s linear infinite;stroke-linecap:round;}#my-svg .error-icon{fill:#a44141;}#my-svg .error-text{fill:#ddd;stroke:#ddd;}#my-svg .edge-thickness-normal{stroke-width:1px;}#my-svg .edge-thickness-thick{stroke-width:3.5px;}#my-svg .edge-pattern-solid{stroke-dasharray:0;}#my-svg .edge-thickness-invisible{stroke-width:0;fill:none;}#my-svg .edge-pattern-dashed{stroke-dasharray:3;}#my-svg .edge-pattern-dotted{stroke-dasharray:2;}#my-svg .marker{fill:lightgrey;stroke:lightgrey;}#my-svg .marker.cross{stroke:lightgrey;}#my-svg svg{font-family:"trebuchet ms",verdana,arial,sans-serif;font-size:16px;}#my-svg p{margin:0;}#my-svg g.classGroup text{fill:#ccc;stroke:none;font-family:"trebuchet ms",verdana,arial,sans-serif;font-size:10px;}#my-svg g.classGroup text .title{font-weight:bolder;}#my-svg .cluster-label text{fill:#F9FFFE;}#my-svg .cluster-label span{color:#F9FFFE;}#my-svg .cluster-label span p{background-color:transparent;}#my-svg .cluster rect{fill:hsl(180, 1.5873015873%, 28.3529411765%);stroke:rgba(255, 255, 255, 0.25);stroke-width:1px;}#my-svg .cluster text{fill:#F9FFFE;}#my-svg .cluster span{color:#F9FFFE;}#my-svg .nodeLabel,#my-svg .edgeLabel{color:#e0dfdf;}#my-svg .noteLabel .nodeLabel,#my-svg .noteLabel .edgeLabel{color:rgb(183.8476190475, 181.5523809523, 181.5523809523);}#my-svg .edgeLabel .label rect{fill:#1f2020;}#my-svg .label text{fill:#e0dfdf;}#my-svg .labelBkg{background:#1f2020;}#my-svg .edgeLabel .label span{background:#1f2020;}#my-svg .classTitle{font-weight:bolder;}#my-svg .node rect,#my-svg .node circle,#my-svg .node ellipse,#my-svg .node polygon,#my-svg .node path{fill:#1f2020;stroke:#ccc;stroke-width:1;}#my-svg .divider{stroke:#ccc;stroke-width:1;}#my-svg g.clickable{cursor:pointer;}#my-svg g.classGroup rect{fill:#1f2020;stroke:#ccc;}#my-svg g.classGroup line{stroke:#ccc;stroke-width:1;}#my-svg .classLabel .box{stroke:none;stroke-width:0;fill:#1f2020;opacity:0.5;}#my-svg .classLabel .label{fill:#ccc;font-size:10px;}#my-svg .relation{stroke:lightgrey;stroke-width:1;fill:none;}#my-svg .dashed-line{stroke-dasharray:3;}#my-svg .dotted-line{stroke-dasharray:1 2;}#my-svg [id$="-compositionStart"],#my-svg .composition{fill:lightgrey!important;stroke:lightgrey!important;stroke-width:1;}#my-svg [id$="-compositionEnd"],#my-svg .composition{fill:lightgrey!important;stroke:lightgrey!important;stroke-width:1;}#my-svg [id$="-dependencyStart"],#my-svg .dependency{fill:lightgrey!important;stroke:lightgrey!important;stroke-width:1;}#my-svg [id$="-dependencyEnd"],#my-svg .dependency{fill:lightgrey!important;stroke:lightgrey!important;stroke-width:1;}#my-svg [id$="-extensionStart"],#my-svg .extension{fill:transparent!important;stroke:lightgrey!important;stroke-width:1;}#my-svg [id$="-extensionEnd"],#my-svg .extension{fill:transparent!important;stroke:lightgrey!important;stroke-width:1;}#my-svg [id$="-aggregationStart"],#my-svg .aggregation{fill:transparent!important;stroke:lightgrey!important;stroke-width:1;}#my-svg [id$="-aggregationEnd"],#my-svg .aggregation{fill:transparent!important;stroke:lightgrey!important;stroke-width:1;}#my-svg [id$="-lollipopStart"],#my-svg .lollipop{fill:#1f2020!important;stroke:lightgrey!important;stroke-width:1;}#my-svg [id$="-lollipopEnd"],#my-svg .lollipop{fill:#1f2020!important;stroke:lightgrey!important;stroke-width:1;}#my-svg .edgeTerminals{font-size:11px;line-height:initial;}#my-svg .classTitleText{text-anchor:middle;font-size:18px;fill:#ccc;}#my-svg .edgeLabel[data-look="neo"]{background-color:hsl(0, 0%, 34.4117647059%);text-align:center;}#my-svg .edgeLabel[data-look="neo"] p{background-color:hsl(0, 0%, 34.4117647059%);}#my-svg .edgeLabel[data-look="neo"] rect{opacity:0.5;background-color:hsl(0, 0%, 34.4117647059%);fill:hsl(0, 0%, 34.4117647059%);}#my-svg .label-icon{display:inline-block;height:1em;overflow:visible;vertical-align:-0.125em;}#my-svg .node .label-icon path{fill:currentColor;stroke:revert;stroke-width:revert;}#my-svg .node .neo-node{stroke:#ccc;}#my-svg [data-look="neo"].node rect,#my-svg [data-look="neo"].cluster rect,#my-svg [data-look="neo"].node polygon{stroke:url(#my-svg-gradient);filter:drop-shadow( 1px 2px 2px rgba(185,185,185,1));}#my-svg [data-look="neo"].swimlane.cluster rect{filter:none;}#my-svg [data-look="neo"].node path{stroke:url(#my-svg-gradient);stroke-width:1px;}#my-svg [data-look="neo"].node .outer-path{filter:drop-shadow( 1px 2px 2px rgba(185,185,185,1));}#my-svg [data-look="neo"].node .neo-line path{stroke:#ccc;filter:none;}#my-svg [data-look="neo"].node circle{stroke:url(#my-svg-gradient);filter:drop-shadow( 1px 2px 2px rgba(185,185,185,1));}#my-svg [data-look="neo"].node circle .state-start{fill:#000000;}#my-svg [data-look="neo"].icon-shape .icon{fill:url(#my-svg-gradient);filter:drop-shadow( 1px 2px 2px rgba(185,185,185,1));}#my-svg [data-look="neo"].icon-shape .icon-neo path{stroke:url(#my-svg-gradient);filter:drop-shadow( 1px 2px 2px rgba(185,185,185,1));}#my-svg :root{--mermaid-font-family:"trebuchet ms",verdana,arial,sans-serif;}</style><g><defs><marker id="my-svg_classDiagram-aggregationStart" class="marker aggregation classDiagram" refX="18" refY="7" markerWidth="190" markerHeight="240" orient="auto" markerUnits="userSpaceOnUse"><path d="M 18,7 L9,13 L1,7 L9,1 Z"/></marker></defs><defs><marker id="my-svg_classDiagram-aggregationEnd" class="marker aggregation classDiagram" refX="1" refY="7" markerWidth="20" markerHeight="28" orient="auto" markerUnits="userSpaceOnUse"><path d="M 18,7 L9,13 L1,7 L9,1 Z"/></marker></defs><defs><marker id="my-svg_classDiagram-aggregationStart-margin" class="marker aggregation classDiagram" refX="15" refY="7" markerWidth="190" markerHeight="240" orient="auto" markerUnits="userSpaceOnUse"><path d="M 18,7 L9,13 L1,7 L9,1 Z" style="stroke-width: 2;"/></marker></defs><defs><marker id="my-svg_classDiagram-aggregationEnd-margin" class="marker aggregation classDiagram" refX="1" refY="7" markerWidth="20" markerHeight="28" orient="auto" markerUnits="userSpaceOnUse"><path d="M 18,7 L9,13 L1,7 L9,1 Z" style="stroke-width: 2;"/></marker></defs><defs><marker id="my-svg_classDiagram-extensionStart" class="marker extension classDiagram" refX="18" refY="7" markerWidth="20" markerHeight="28" orient="auto" markerUnits="userSpaceOnUse"><path d="M 1,7 L18,13 V 1 Z"/></marker></defs><defs><marker id="my-svg_classDiagram-extensionEnd" class="marker extension classDiagram" refX="1" refY="7" markerWidth="20" markerHeight="28" orient="auto" markerUnits="userSpaceOnUse"><path d="M 1,1 V 13 L18,7 Z"/></marker></defs><marker id="my-svg_classDiagram-extensionStart-margin" class="marker extension classDiagram" refX="18" refY="7" markerWidth="20" markerHeight="28" orient="auto" markerUnits="userSpaceOnUse" viewBox="0 0 20 14"><polygon points="10,7 18,13 18,1" style="stroke-width: 2; stroke-dasharray: 0;"/></marker><defs><marker id="my-svg_classDiagram-extensionEnd-margin" class="marker extension classDiagram" refX="9" refY="7" markerWidth="20" markerHeight="28" orient="auto" markerUnits="userSpaceOnUse" viewBox="0 0 20 14"><polygon points="10,1 10,13 18,7" style="stroke-width: 2; stroke-dasharray: 0;"/></marker></defs><defs><marker id="my-svg_classDiagram-compositionStart" class="marker composition classDiagram" refX="18" refY="7" markerWidth="190" markerHeight="240" orient="auto" markerUnits="userSpaceOnUse"><path d="M 18,7 L9,13 L1,7 L9,1 Z"/></marker></defs><defs><marker id="my-svg_classDiagram-compositionEnd" class="marker composition classDiagram" refX="1" refY="7" markerWidth="20" markerHeight="28" orient="auto" markerUnits="userSpaceOnUse"><path d="M 18,7 L9,13 L1,7 L9,1 Z"/></marker></defs><defs><marker id="my-svg_classDiagram-compositionStart-margin" class="marker composition classDiagram" refX="15" refY="7" markerWidth="190" markerHeight="240" orient="auto" markerUnits="userSpaceOnUse"><path viewBox="0 0 15 15" d="M 18,7 L9,13 L1,7 L9,1 Z" style="stroke-width: 0;"/></marker></defs><defs><marker id="my-svg_classDiagram-compositionEnd-margin" class="marker composition classDiagram" refX="3.5" refY="7" markerWidth="20" markerHeight="28" orient="auto" markerUnits="userSpaceOnUse"><path d="M 18,7 L9,13 L1,7 L9,1 Z" style="stroke-width: 0;"/></marker></defs><defs><marker id="my-svg_classDiagram-dependencyStart" class="marker dependency classDiagram" refX="6" refY="7" markerWidth="190" markerHeight="240" orient="auto" markerUnits="userSpaceOnUse"><path d="M 5,7 L9,13 L1,7 L9,1 Z"/></marker></defs><defs><marker id="my-svg_classDiagram-dependencyEnd" class="marker dependency classDiagram" refX="13" refY="7" markerWidth="20" markerHeight="28" orient="auto" markerUnits="userSpaceOnUse"><path d="M 18,7 L9,13 L14,7 L9,1 Z"/></marker></defs><defs><marker id="my-svg_classDiagram-dependencyStart-margin" class="marker dependency classDiagram" refX="4" refY="7" markerWidth="190" markerHeight="240" orient="auto" markerUnits="userSpaceOnUse"><path d="M 5,7 L9,13 L1,7 L9,1 Z" style="stroke-width: 0;"/></marker></defs><defs><marker id="my-svg_classDiagram-dependencyEnd-margin" class="marker dependency classDiagram" refX="16" refY="7" markerWidth="20" markerHeight="28" orient="auto" markerUnits="userSpaceOnUse"><path d="M 18,7 L9,13 L14,7 L9,1 Z" style="stroke-width: 0;"/></marker></defs><defs><marker id="my-svg_classDiagram-lollipopStart" class="marker lollipop classDiagram" refX="13" refY="7" markerWidth="190" markerHeight="240" orient="auto" markerUnits="userSpaceOnUse"><circle fill="transparent" cx="7" cy="7" r="6"/></marker></defs><defs><marker id="my-svg_classDiagram-lollipopEnd" class="marker lollipop classDiagram" refX="1" refY="7" markerWidth="190" markerHeight="240" orient="auto" markerUnits="userSpaceOnUse"><circle fill="transparent" cx="7" cy="7" r="6"/></marker></defs><defs><marker id="my-svg_classDiagram-lollipopStart-margin" class="marker lollipop classDiagram" refX="13" refY="7" markerWidth="190" markerHeight="240" orient="auto" markerUnits="userSpaceOnUse"><circle fill="transparent" cx="7" cy="7" r="6" stroke-width="2"/></marker></defs><defs><marker id="my-svg_classDiagram-lollipopEnd-margin" class="marker lollipop classDiagram" refX="1" refY="7" markerWidth="190" markerHeight="240" orient="auto" markerUnits="userSpaceOnUse"><circle fill="transparent" cx="7" cy="7" r="6" stroke-width="2"/></marker></defs><g class="root"><g class="clusters"/><g class="edgePaths"><path d="M709.074,265.25L709.074,268.542C709.074,271.833,709.074,278.417,709.074,287.875C709.074,297.333,709.074,309.667,709.074,315.833L709.074,322" id="my-svg-id_Usuario_Aluno_1" class="edge-thickness-normal edge-pattern-solid relation" style=";;;" data-edge="true" data-et="edge" data-id="id_Usuario_Aluno_1" data-points="W3sieCI6NzA5LjA3NDIxODc1LCJ5IjoyNDh9LHsieCI6NzA5LjA3NDIxODc1LCJ5IjoyODV9LHsieCI6NzA5LjA3NDIxODc1LCJ5IjozMjJ9XQ==" data-look="classic" marker-start="url(#my-svg_classDiagram-extensionStart)"/><path d="M854.86,168.976L923.659,188.314C992.458,207.651,1130.055,246.325,1198.854,271.829C1267.652,297.333,1267.652,309.667,1267.652,315.833L1267.652,322" id="my-svg-id_Usuario_Mentor_2" class="edge-thickness-normal edge-pattern-solid relation" style=";;;" data-edge="true" data-et="edge" data-id="id_Usuario_Mentor_2" data-points="W3sieCI6ODM4LjI1MzkwNjI1LCJ5IjoxNjQuMzA4NjM4MDAzODYwMjR9LHsieCI6MTI2Ny42NTIzNDM3NSwieSI6Mjg1fSx7IngiOjEyNjcuNjUyMzQzNzUsInkiOjMyMn1d" data-look="classic" marker-start="url(#my-svg_classDiagram-extensionStart)"/><path d="M579.895,167.483L515.814,187.07C451.733,206.656,323.572,245.828,259.491,272.206C195.41,298.583,195.41,312.167,195.41,318.958L195.41,325.75" id="my-svg-id_Usuario_INotificavel_3" class="edge-thickness-normal edge-pattern-dashed relation" style=";;;" data-edge="true" data-et="edge" data-id="id_Usuario_INotificavel_3" data-points="W3sieCI6NTc5Ljg5NDUzMTI1LCJ5IjoxNjcuNDgzNDE0MTk2NDEzNjN9LHsieCI6MTk1LjQxMDE1NjI1LCJ5IjoyODV9LHsieCI6MTk1LjQxMDE1NjI1LCJ5IjozNDN9XQ==" data-look="classic" marker-end="url(#my-svg_classDiagram-extensionEnd)"/><path d="M709.074,514L709.074,520.167C709.074,526.333,709.074,538.667,728.631,555.827C748.188,572.987,787.301,594.974,806.858,605.968L826.414,616.962" id="my-svg-id_Aluno_SolicitacaoMentoria_4" class="edge-thickness-normal edge-pattern-solid relation" style=";;;" data-edge="true" data-et="edge" data-id="id_Aluno_SolicitacaoMentoria_4" data-points="W3sieCI6NzA5LjA3NDIxODc1LCJ5Ijo1MTR9LHsieCI6NzA5LjA3NDIxODc1LCJ5Ijo1NTF9LHsieCI6ODMxLjY0NDUzMTI1LCJ5Ijo2MTkuOTAxODcxMzgxMDE3Nn1d" data-look="classic" marker-end="url(#my-svg_classDiagram-dependencyEnd)"/><path d="M1267.652,514L1267.652,520.167C1267.652,526.333,1267.652,538.667,1248.096,555.827C1228.539,572.987,1189.426,594.974,1169.869,605.968L1150.312,616.962" id="my-svg-id_Mentor_SolicitacaoMentoria_5" class="edge-thickness-normal edge-pattern-solid relation" style=";;;" data-edge="true" data-et="edge" data-id="id_Mentor_SolicitacaoMentoria_5" data-points="W3sieCI6MTI2Ny42NTIzNDM3NSwieSI6NTE0fSx7IngiOjEyNjcuNjUyMzQzNzUsInkiOjU1MX0seyJ4IjoxMTQ1LjA4MjAzMTI1LCJ5Ijo2MTkuOTAxODcxMzgxMDE3Nn1d" data-look="classic" marker-end="url(#my-svg_classDiagram-dependencyEnd)"/><path d="M988.363,845.25L988.363,848.542C988.363,851.833,988.363,858.417,988.363,867.875C988.363,877.333,988.363,889.667,988.363,895.833L988.363,902" id="my-svg-id_SolicitacaoMentoria_SessaoMentoria_6" class="edge-thickness-normal edge-pattern-solid relation" style=";;;" data-edge="true" data-et="edge" data-id="id_SolicitacaoMentoria_SessaoMentoria_6" data-points="W3sieCI6OTg4LjM2MzI4MTI1LCJ5Ijo4Mjh9LHsieCI6OTg4LjM2MzI4MTI1LCJ5Ijo4NjV9LHsieCI6OTg4LjM2MzI4MTI1LCJ5Ijo5MDJ9XQ==" data-look="classic" marker-start="url(#my-svg_classDiagram-compositionStart)"/></g><g class="edgeLabels"><g class="edgeLabel" transform="translate(709.07421875, 285)"><g class="label" data-id="id_Usuario_Aluno_1" transform="translate(-32.9140625, -12)"><foreignObject width="65.828125" height="24"><div xmlns="http://www.w3.org/1999/xhtml" class="labelBkg" style="display: table-cell; white-space: nowrap; line-height: 1.5; max-width: 200px; text-align: center;"><span class="edgeLabel"><p>Herda de</p></span></div></foreignObject></g></g><g class="edgeLabel" transform="translate(1267.65234375, 285)"><g class="label" data-id="id_Usuario_Mentor_2" transform="translate(-32.9140625, -12)"><foreignObject width="65.828125" height="24"><div xmlns="http://www.w3.org/1999/xhtml" class="labelBkg" style="display: table-cell; white-space: nowrap; line-height: 1.5; max-width: 200px; text-align: center;"><span class="edgeLabel"><p>Herda de</p></span></div></foreignObject></g></g><g class="edgeLabel" transform="translate(195.41015625, 285)"><g class="label" data-id="id_Usuario_INotificavel_3" transform="translate(-41.796875, -12)"><foreignObject width="83.59375" height="24"><div xmlns="http://www.w3.org/1999/xhtml" class="labelBkg" style="display: table-cell; white-space: nowrap; line-height: 1.5; max-width: 200px; text-align: center;"><span class="edgeLabel"><p>Implementa</p></span></div></foreignObject></g></g><g class="edgeLabel" transform="translate(709.07421875, 551)"><g class="label" data-id="id_Aluno_SolicitacaoMentoria_4" transform="translate(-26.6796875, -12)"><foreignObject width="53.359375" height="24"><div xmlns="http://www.w3.org/1999/xhtml" class="labelBkg" style="display: table-cell; white-space: nowrap; line-height: 1.5; max-width: 200px; text-align: center;"><span class="edgeLabel"><p>Realiza</p></span></div></foreignObject></g></g><g class="edgeLabel" transform="translate(1267.65234375, 551)"><g class="label" data-id="id_Mentor_SolicitacaoMentoria_5" transform="translate(-21.6484375, -12)"><foreignObject width="43.296875" height="24"><div xmlns="http://www.w3.org/1999/xhtml" class="labelBkg" style="display: table-cell; white-space: nowrap; line-height: 1.5; max-width: 200px; text-align: center;"><span class="edgeLabel"><p>Avalia</p></span></div></foreignObject></g></g><g class="edgeLabel" transform="translate(988.36328125, 865)"><g class="label" data-id="id_SolicitacaoMentoria_SessaoMentoria_6" transform="translate(-82.2890625, -12)"><foreignObject width="164.578125" height="24"><div xmlns="http://www.w3.org/1999/xhtml" class="labelBkg" style="display: table-cell; white-space: nowrap; line-height: 1.5; max-width: 200px; text-align: center;"><span class="edgeLabel"><p>Gera quando aprovada</p></span></div></foreignObject></g></g><g class="edgeTerminals" transform="translate(694.074219375, 531.5000005357143)"><g class="inner" transform="translate(-3.0625, -8.25)"><foreignObject width="6.125" height="16.5" style="width: 9px; height: 12px;"><div xmlns="http://www.w3.org/1999/xhtml" style="display: table-cell; white-space: nowrap; line-height: 1.5;"><span class="edgeLabel"><p>1</p></span></div></foreignObject></g></g><g class="edgeTerminals" transform="translate(1252.652341875, 531.4999983928572)"><g class="inner" transform="translate(-3.0625, -8.25)"><foreignObject width="6.125" height="16.5" style="width: 9px; height: 12px;"><div xmlns="http://www.w3.org/1999/xhtml" style="display: table-cell; white-space: nowrap; line-height: 1.5;"><span class="edgeLabel"><p>1</p></span></div></foreignObject></g></g><g class="edgeTerminals" transform="translate(973.363280625, 845.4999994642857)"><g class="inner" transform="translate(-3.0625, -8.25)"><foreignObject width="6.125" height="16.5" style="width: 9px; height: 12px;"><div xmlns="http://www.w3.org/1999/xhtml" style="display: table-cell; white-space: nowrap; line-height: 1.5;"><span class="edgeLabel"><p>1</p></span></div></foreignObject></g></g><g class="edgeTerminals" transform="translate(818.7399831324967, 593.2508201605627)"><g class="inner" transform="translate(-13.453125, -8.25)"/><foreignObject width="26.90625" height="16.5" style="width: 36px; height: 12px;"><div xmlns="http://www.w3.org/1999/xhtml" style="display: table-cell; white-space: nowrap; line-height: 1.5;"><span class="edgeLabel"><p>many</p></span></div></foreignObject></g><g class="edgeTerminals" transform="translate(1162.6872967594882, 619.4020919922797)"><g class="inner" transform="translate(-13.453125, -8.25)"/><foreignObject width="26.90625" height="16.5" style="width: 36px; height: 12px;"><div xmlns="http://www.w3.org/1999/xhtml" style="display: table-cell; white-space: nowrap; line-height: 1.5;"><span class="edgeLabel"><p>many</p></span></div></foreignObject></g><g class="edgeTerminals" transform="translate(998.363280625, 879.4999994642857)"><g class="inner" transform="translate(-9.1796875, -8.25)"/><foreignObject width="18.359375" height="16.5" style="width: 36px; height: 12px;"><div xmlns="http://www.w3.org/1999/xhtml" style="display: table-cell; white-space: nowrap; line-height: 1.5;"><span class="edgeLabel"><p>0..1</p></span></div></foreignObject></g></g><g class="nodes"><g class="node default" id="my-svg-classId-INotificavel-0" data-look="classic" transform="translate(195.41015625, 418)"><g class="basic label-container outer-path"><path d="M-187.41015625 -75 L187.41015625 -75 L187.41015625 75 L-187.41015625 75" stroke="none" stroke-width="0" fill="#1f2020" style=""/><path d="M-187.41015625 -75 C-61.5990180564724 -75, 64.2121201370552 -75, 187.41015625 -75 M-187.41015625 -75 C-51.66190762443284 -75, 84.08634100113431 -75, 187.41015625 -75 M187.41015625 -75 C187.41015625 -16.845201161154108, 187.41015625 41.309597677691784, 187.41015625 75 M187.41015625 -75 C187.41015625 -17.45086083147696, 187.41015625 40.09827833704608, 187.41015625 75 M187.41015625 75 C57.96228279954616 75, -71.48559065090768 75, -187.41015625 75 M187.41015625 75 C99.41825120972072 75, 11.426346169441445 75, -187.41015625 75 M-187.41015625 75 C-187.41015625 26.811881024475724, -187.41015625 -21.37623795104855, -187.41015625 -75 M-187.41015625 75 C-187.41015625 33.150328929258194, -187.41015625 -8.699342141483612, -187.41015625 -75" stroke="#ccc" stroke-width="1.3" fill="none" stroke-dasharray="0 0" style=""/></g><g class="annotation-group text" transform="translate(-39.5859375, -51)"><g class="label" style="" transform="translate(0,-12)"><foreignObject width="79.171875" height="24"><div xmlns="http://www.w3.org/1999/xhtml" style="display: table-cell; white-space: nowrap; line-height: 1.5; max-width: 122px; text-align: center;"><span class="nodeLabel markdown-node-label" style=""><p>«interface»</p></span></div></foreignObject></g></g><g class="label-group text" transform="translate(-42.6796875, -27)"><g class="label" style="font-weight: bolder" transform="translate(0,-12)"><foreignObject width="85.359375" height="24"><div xmlns="http://www.w3.org/1999/xhtml" style="display: table-cell; white-space: nowrap; line-height: 1.5; max-width: 128px; text-align: center;"><span class="nodeLabel markdown-node-label" style=""><p>INotificavel</p></span></div></foreignObject></g></g><g class="members-group text" transform="translate(-175.41015625, 21)"/><g class="methods-group text" transform="translate(-175.41015625, 51)"><g class="label" style="" transform="translate(0,-12)"><foreignObject width="308.140625" height="24"><div xmlns="http://www.w3.org/1999/xhtml" style="display: table-cell; white-space: nowrap; line-height: 1.5; max-width: 338px; text-align: center;"><span class="nodeLabel markdown-node-label" style=""><p>+enviarNotificacao(string mensagem) : void</p></span></div></foreignObject></g></g><g class="divider" style=""><path d="M-187.41015625 -3 C-104.17890805877045 -2.9997779436028, -20.947659867540892 -2.9995558872055996, 187.41015625 -2.999 M-187.41015625 -3 C-68.67139026857836 -2.9996832114962246, 50.06737571284327 -2.9993664229924497, 187.41015625 -2.999" stroke="#ccc" stroke-width="1.3" fill="none" stroke-dasharray="0 0" style=""/></g><g class="divider" style=""><path d="M-187.41015625 21 C-107.56793901781732 21.000213014648807, -27.725721785634647 21.00042602929761, 187.41015625 21.001 M-187.41015625 21 C-65.65341974161124 21.000324840283326, 56.10331676677751 21.00064968056665, 187.41015625 21.001" stroke="#ccc" stroke-width="1.3" fill="none" stroke-dasharray="0 0" style=""/></g></g><g class="node default" id="my-svg-classId-Usuario-1" data-look="classic" transform="translate(709.07421875, 128)"><g class="basic label-container outer-path"><path d="M-129.1796875 -120 L129.1796875 -120 L129.1796875 120 L-129.1796875 120" stroke="none" stroke-width="0" fill="#1f2020" style=""/><path d="M-129.1796875 -120 C-59.79797958796702 -120, 9.583728324065959 -120, 129.1796875 -120 M-129.1796875 -120 C-68.88068989532317 -120, -8.58169229064633 -120, 129.1796875 -120 M129.1796875 -120 C129.1796875 -43.50570629586197, 129.1796875 32.98858740827606, 129.1796875 120 M129.1796875 -120 C129.1796875 -70.47549869902053, 129.1796875 -20.950997398041082, 129.1796875 120 M129.1796875 120 C59.99347729927058 120, -9.19273290145884 120, -129.1796875 120 M129.1796875 120 C31.330261744982536 120, -66.51916401003493 120, -129.1796875 120 M-129.1796875 120 C-129.1796875 61.941804484079825, -129.1796875 3.883608968159649, -129.1796875 -120 M-129.1796875 120 C-129.1796875 71.25482178336192, -129.1796875 22.509643566723838, -129.1796875 -120" stroke="#ccc" stroke-width="1.3" fill="none" stroke-dasharray="0 0" style=""/></g><g class="annotation-group text" transform="translate(-37.359375, -96)"><g class="label" style="" transform="translate(0,-12)"><foreignObject width="74.71875" height="24"><div xmlns="http://www.w3.org/1999/xhtml" style="display: table-cell; white-space: nowrap; line-height: 1.5; max-width: 116px; text-align: center;"><span class="nodeLabel markdown-node-label" style=""><p>«abstract»</p></span></div></foreignObject></g></g><g class="label-group text" transform="translate(-29.7890625, -72)"><g class="label" style="font-weight: bolder" transform="translate(0,-12)"><foreignObject width="59.578125" height="24"><div xmlns="http://www.w3.org/1999/xhtml" style="display: table-cell; white-space: nowrap; line-height: 1.5; max-width: 101px; text-align: center;"><span class="nodeLabel markdown-node-label" style=""><p>Usuario</p></span></div></foreignObject></g></g><g class="members-group text" transform="translate(-117.1796875, -24)"><g class="label" style="" transform="translate(0,-12)"><foreignObject width="39.125" height="24"><div xmlns="http://www.w3.org/1999/xhtml" style="display: table-cell; white-space: nowrap; line-height: 1.5; max-width: 93px; text-align: center;"><span class="nodeLabel markdown-node-label" style=""><p>-int id</p></span></div></foreignObject></g><g class="label" style="" transform="translate(0,12)"><foreignObject width="92.5" height="24"><div xmlns="http://www.w3.org/1999/xhtml" style="display: table-cell; white-space: nowrap; line-height: 1.5; max-width: 138px; text-align: center;"><span class="nodeLabel markdown-node-label" style=""><p>#string nome</p></span></div></foreignObject></g><g class="label" style="" transform="translate(0,36)"><foreignObject width="90.703125" height="24"><div xmlns="http://www.w3.org/1999/xhtml" style="display: table-cell; white-space: nowrap; line-height: 1.5; max-width: 139px; text-align: center;"><span class="nodeLabel markdown-node-label" style=""><p>#string email</p></span></div></foreignObject></g><g class="label" style="" transform="translate(0,60)"><foreignObject width="117.375" height="24"><div xmlns="http://www.w3.org/1999/xhtml" style="display: table-cell; white-space: nowrap; line-height: 1.5; max-width: 163px; text-align: center;"><span class="nodeLabel markdown-node-label" style=""><p>#string matricula</p></span></div></foreignObject></g></g><g class="methods-group text" transform="translate(-117.1796875, 96)"><g class="label" style="" transform="translate(0,-12)"><foreignObject width="197" height="24"><div xmlns="http://www.w3.org/1999/xhtml" style="display: table-cell; white-space: nowrap; line-height: 1.5; max-width: 234px; text-align: center;"><span class="nodeLabel markdown-node-label" style=""><p>+getDadosContato() : string</p></span></div></foreignObject></g></g><g class="divider" style=""><path d="M-129.1796875 -48 C-41.65848405340155 -47.99966124239368, 45.8627193931969 -47.99932248478735, 129.1796875 -47.999 M-129.1796875 -48 C-50.287763169881586 -47.99969464268781, 28.604161160236828 -47.999389285375614, 129.1796875 -47.999" stroke="#ccc" stroke-width="1.3" fill="none" stroke-dasharray="0 0" style=""/></g><g class="divider" style=""><path d="M-129.1796875 72 C-41.46305342481145 72.00033951403573, 46.2535806503771 72.00067902807146, 129.1796875 72.001 M-129.1796875 72 C-76.87052254017323 72.00020246668022, -24.561357580346453 72.00040493336044, 129.1796875 72.001" stroke="#ccc" stroke-width="1.3" fill="none" stroke-dasharray="0 0" style=""/></g></g><g class="node default" id="my-svg-classId-Aluno-2" data-look="classic" transform="translate(709.07421875, 418)"><g class="basic label-container outer-path"><path d="M-276.25390625 -96 L276.25390625 -96 L276.25390625 96 L-276.25390625 96" stroke="none" stroke-width="0" fill="#1f2020" style=""/><path d="M-276.25390625 -96 C-118.27332792446998 -96, 39.70725040106004 -96, 276.25390625 -96 M-276.25390625 -96 C-112.09121751449365 -96, 52.0714712210127 -96, 276.25390625 -96 M276.25390625 -96 C276.25390625 -34.87013999630935, 276.25390625 26.259720007381304, 276.25390625 96 M276.25390625 -96 C276.25390625 -23.829129497639883, 276.25390625 48.341741004720234, 276.25390625 96 M276.25390625 96 C142.29805769185376 96, 8.342209133707513 96, -276.25390625 96 M276.25390625 96 C86.98141670315701 96, -102.29107284368598 96, -276.25390625 96 M-276.25390625 96 C-276.25390625 27.66157494824003, -276.25390625 -40.67685010351994, -276.25390625 -96 M-276.25390625 96 C-276.25390625 25.049570729820545, -276.25390625 -45.90085854035891, -276.25390625 -96" stroke="#ccc" stroke-width="1.3" fill="none" stroke-dasharray="0 0" style=""/></g><g class="annotation-group text" transform="translate(0, -72)"/><g class="label-group text" transform="translate(-22.6640625, -72)"><g class="label" style="font-weight: bolder" transform="translate(0,-12)"><foreignObject width="45.328125" height="24"><div xmlns="http://www.w3.org/1999/xhtml" style="display: table-cell; white-space: nowrap; line-height: 1.5; max-width: 90px; text-align: center;"><span class="nodeLabel markdown-node-label" style=""><p>Aluno</p></span></div></foreignObject></g></g><g class="members-group text" transform="translate(-264.25390625, -24)"><g class="label" style="" transform="translate(0,-12)"><foreignObject width="88.03125" height="24"><div xmlns="http://www.w3.org/1999/xhtml" style="display: table-cell; white-space: nowrap; line-height: 1.5; max-width: 135px; text-align: center;"><span class="nodeLabel markdown-node-label" style=""><p>-string curso</p></span></div></foreignObject></g><g class="label" style="" transform="translate(0,12)"><foreignObject width="80.046875" height="24"><div xmlns="http://www.w3.org/1999/xhtml" style="display: table-cell; white-space: nowrap; line-height: 1.5; max-width: 130px; text-align: center;"><span class="nodeLabel markdown-node-label" style=""><p>-int periodo</p></span></div></foreignObject></g></g><g class="methods-group text" transform="translate(-264.25390625, 48)"><g class="label" style="" transform="translate(0,-12)"><foreignObject width="505.84375" height="24"><div xmlns="http://www.w3.org/1999/xhtml" style="display: table-cell; white-space: nowrap; line-height: 1.5; max-width: 524px; text-align: center;"><span class="nodeLabel markdown-node-label" style=""><p>+solicitarMentoria(Mentor mentor, DateTime data) : SolicitacaoMentoria</p></span></div></foreignObject></g><g class="label" style="" transform="translate(0,12)"><foreignObject width="395.328125" height="24"><div xmlns="http://www.w3.org/1999/xhtml" style="display: table-cell; white-space: nowrap; line-height: 1.5; max-width: 406px; text-align: center;"><span class="nodeLabel markdown-node-label" style=""><p>+avaliarSessao(SessaoMentoria sessao, int nota) : void</p></span></div></foreignObject></g></g><g class="divider" style=""><path d="M-276.25390625 -48 C-140.38051478426456 -47.99975407878696, -4.507123318529125 -47.99950815757391, 276.25390625 -47.999 M-276.25390625 -48 C-59.46190300182619 -47.99960762183205, 157.33010024634763 -47.999215243664096, 276.25390625 -47.999" stroke="#ccc" stroke-width="1.3" fill="none" stroke-dasharray="0 0" style=""/></g><g class="divider" style=""><path d="M-276.25390625 24 C-155.56082846822147 24.000218445920677, -34.867750686442974 24.00043689184135, 276.25390625 24.001 M-276.25390625 24 C-89.36787509823455 24.00033825047705, 97.5181560535309 24.0006765009541, 276.25390625 24.001" stroke="#ccc" stroke-width="1.3" fill="none" stroke-dasharray="0 0" style=""/></g></g><g class="node default" id="my-svg-classId-Mentor-3" data-look="classic" transform="translate(1267.65234375, 418)"><g class="basic label-container outer-path"><path d="M-232.32421875 -96 L232.32421875 -96 L232.32421875 96 L-232.32421875 96" stroke="none" stroke-width="0" fill="#1f2020" style=""/><path d="M-232.32421875 -96 C-52.09061781661154 -96, 128.14298311677692 -96, 232.32421875 -96 M-232.32421875 -96 C-54.85661728592933 -96, 122.61098417814134 -96, 232.32421875 -96 M232.32421875 -96 C232.32421875 -43.46214671041614, 232.32421875 9.075706579167715, 232.32421875 96 M232.32421875 -96 C232.32421875 -33.762276411375666, 232.32421875 28.475447177248668, 232.32421875 96 M232.32421875 96 C64.41450720838466 96, -103.49520433323067 96, -232.32421875 96 M232.32421875 96 C53.9894762171574 96, -124.3452663156852 96, -232.32421875 96 M-232.32421875 96 C-232.32421875 37.000117513489386, -232.32421875 -21.99976497302123, -232.32421875 -96 M-232.32421875 96 C-232.32421875 21.023656367787993, -232.32421875 -53.952687264424014, -232.32421875 -96" stroke="#ccc" stroke-width="1.3" fill="none" stroke-dasharray="0 0" style=""/></g><g class="annotation-group text" transform="translate(0, -72)"/><g class="label-group text" transform="translate(-26.6640625, -72)"><g class="label" style="font-weight: bolder" transform="translate(0,-12)"><foreignObject width="53.328125" height="24"><div xmlns="http://www.w3.org/1999/xhtml" style="display: table-cell; white-space: nowrap; line-height: 1.5; max-width: 98px; text-align: center;"><span class="nodeLabel markdown-node-label" style=""><p>Mentor</p></span></div></foreignObject></g></g><g class="members-group text" transform="translate(-220.32421875, -24)"><g class="label" style="" transform="translate(0,-12)"><foreignObject width="180.546875" height="24"><div xmlns="http://www.w3.org/1999/xhtml" style="display: table-cell; white-space: nowrap; line-height: 1.5; max-width: 216px; text-align: center;"><span class="nodeLabel markdown-node-label" style=""><p>-string areaEspecialidade</p></span></div></foreignObject></g><g class="label" style="" transform="translate(0,12)"><foreignObject width="112.9375" height="24"><div xmlns="http://www.w3.org/1999/xhtml" style="display: table-cell; white-space: nowrap; line-height: 1.5; max-width: 164px; text-align: center;"><span class="nodeLabel markdown-node-label" style=""><p>-int limiteAlunos</p></span></div></foreignObject></g></g><g class="methods-group text" transform="translate(-220.32421875, 48)"><g class="label" style="" transform="translate(0,-12)"><foreignObject width="413.984375" height="24"><div xmlns="http://www.w3.org/1999/xhtml" style="display: table-cell; white-space: nowrap; line-height: 1.5; max-width: 438px; text-align: center;"><span class="nodeLabel markdown-node-label" style=""><p>+aprovarSolicitacao(SolicitacaoMentoria solicitacao) : bool</p></span></div></foreignObject></g><g class="label" style="" transform="translate(0,12)"><foreignObject width="360.90625" height="24"><div xmlns="http://www.w3.org/1999/xhtml" style="display: table-cell; white-space: nowrap; line-height: 1.5; max-width: 389px; text-align: center;"><span class="nodeLabel markdown-node-label" style=""><p>+cadastrarDisponibilidade(DateTime horario) : void</p></span></div></foreignObject></g></g><g class="divider" style=""><path d="M-232.32421875 -48 C-58.78999631392381 -47.9996265257592, 114.74422612215238 -47.999253051518394, 232.32421875 -47.999 M-232.32421875 -48 C-88.24891015922461 -47.999689926195884, 55.826398431550786 -47.999379852391776, 232.32421875 -47.999" stroke="#ccc" stroke-width="1.3" fill="none" stroke-dasharray="0 0" style=""/></g><g class="divider" style=""><path d="M-232.32421875 24 C-101.17813811966911 24.00028224797513, 29.96794251066177 24.000564495950254, 232.32421875 24.001 M-232.32421875 24 C-102.93746044577037 24.00027846162359, 26.44929785845926 24.000556923247178, 232.32421875 24.001" stroke="#ccc" stroke-width="1.3" fill="none" stroke-dasharray="0 0" style=""/></g></g><g class="node default" id="my-svg-classId-SolicitacaoMentoria-4" data-look="classic" transform="translate(988.36328125, 708)"><g class="basic label-container outer-path"><path d="M-156.71875 -120 L156.71875 -120 L156.71875 120 L-156.71875 120" stroke="none" stroke-width="0" fill="#1f2020" style=""/><path d="M-156.71875 -120 C-69.5944821759468 -120, 17.52978564810641 -120, 156.71875 -120 M-156.71875 -120 C-35.85728750728758 -120, 85.00417498542484 -120, 156.71875 -120 M156.71875 -120 C156.71875 -38.13933816962654, 156.71875 43.72132366074692, 156.71875 120 M156.71875 -120 C156.71875 -62.4031372970323, 156.71875 -4.806274594064604, 156.71875 120 M156.71875 120 C36.918538655101315 120, -82.88167268979737 120, -156.71875 120 M156.71875 120 C86.07506396770017 120, 15.431377935400349 120, -156.71875 120 M-156.71875 120 C-156.71875 57.3802186842757, -156.71875 -5.239562631448607, -156.71875 -120 M-156.71875 120 C-156.71875 33.19826532330019, -156.71875 -53.60346935339962, -156.71875 -120" stroke="#ccc" stroke-width="1.3" fill="none" stroke-dasharray="0 0" style=""/></g><g class="annotation-group text" transform="translate(0, -96)"/><g class="label-group text" transform="translate(-75.578125, -96)"><g class="label" style="font-weight: bolder" transform="translate(0,-12)"><foreignObject width="151.15625" height="24"><div xmlns="http://www.w3.org/1999/xhtml" style="display: table-cell; white-space: nowrap; line-height: 1.5; max-width: 180px; text-align: center;"><span class="nodeLabel markdown-node-label" style=""><p>SolicitacaoMentoria</p></span></div></foreignObject></g></g><g class="members-group text" transform="translate(-144.71875, -48)"><g class="label" style="" transform="translate(0,-12)"><foreignObject width="39.125" height="24"><div xmlns="http://www.w3.org/1999/xhtml" style="display: table-cell; white-space: nowrap; line-height: 1.5; max-width: 93px; text-align: center;"><span class="nodeLabel markdown-node-label" style=""><p>-int id</p></span></div></foreignObject></g><g class="label" style="" transform="translate(0,12)"><foreignObject width="182.640625" height="24"><div xmlns="http://www.w3.org/1999/xhtml" style="display: table-cell; white-space: nowrap; line-height: 1.5; max-width: 219px; text-align: center;"><span class="nodeLabel markdown-node-label" style=""><p>-DateTime dataAgendada</p></span></div></foreignObject></g><g class="label" style="" transform="translate(0,36)"><foreignObject width="91.59375" height="24"><div xmlns="http://www.w3.org/1999/xhtml" style="display: table-cell; white-space: nowrap; line-height: 1.5; max-width: 137px; text-align: center;"><span class="nodeLabel markdown-node-label" style=""><p>-string status</p></span></div></foreignObject></g><g class="label" style="" transform="translate(0,60)"><foreignObject width="104.046875" height="24"><div xmlns="http://www.w3.org/1999/xhtml" style="display: table-cell; white-space: nowrap; line-height: 1.5; max-width: 153px; text-align: center;"><span class="nodeLabel markdown-node-label" style=""><p>-string objetivo</p></span></div></foreignObject></g></g><g class="methods-group text" transform="translate(-144.71875, 72)"><g class="label" style="" transform="translate(0,-12)"><foreignObject width="129.375" height="24"><div xmlns="http://www.w3.org/1999/xhtml" style="display: table-cell; white-space: nowrap; line-height: 1.5; max-width: 178px; text-align: center;"><span class="nodeLabel markdown-node-label" style=""><p>+confirmar() : void</p></span></div></foreignObject></g><g class="label" style="" transform="translate(0,12)"><foreignObject width="213.859375" height="24"><div xmlns="http://www.w3.org/1999/xhtml" style="display: table-cell; white-space: nowrap; line-height: 1.5; max-width: 254px; text-align: center;"><span class="nodeLabel markdown-node-label" style=""><p>+cancelar(string motivo) : void</p></span></div></foreignObject></g></g><g class="divider" style=""><path d="M-156.71875 -72 C-57.5434378106894 -71.99968358823628, 41.631874378621205 -71.99936717647257, 156.71875 -71.999 M-156.71875 -72 C-72.65902077230575 -71.9997318134262, 11.400708455388497 -71.99946362685239, 156.71875 -71.999" stroke="#ccc" stroke-width="1.3" fill="none" stroke-dasharray="0 0" style=""/></g><g class="divider" style=""><path d="M-156.71875 48 C-68.1722743820277 48.00028250121832, 20.37420123594461 48.000565002436645, 156.71875 48.001 M-156.71875 48 C-57.05197234649101 48.00031797974924, 42.614805307017974 48.00063595949849, 156.71875 48.001" stroke="#ccc" stroke-width="1.3" fill="none" stroke-dasharray="0 0" style=""/></g></g><g class="node default" id="my-svg-classId-SessaoMentoria-5" data-look="classic" transform="translate(988.36328125, 1010)"><g class="basic label-container outer-path"><path d="M-131.609375 -108 L131.609375 -108 L131.609375 108 L-131.609375 108" stroke="none" stroke-width="0" fill="#1f2020" style=""/><path d="M-131.609375 -108 C-76.09428423236517 -108, -20.579193464730338 -108, 131.609375 -108 M-131.609375 -108 C-63.99248720858776 -108, 3.624400582824478 -108, 131.609375 -108 M131.609375 -108 C131.609375 -62.40618161645639, 131.609375 -16.812363232912773, 131.609375 108 M131.609375 -108 C131.609375 -32.886728728902355, 131.609375 42.22654254219529, 131.609375 108 M131.609375 108 C71.11386517062536 108, 10.618355341250705 108, -131.609375 108 M131.609375 108 C62.129162116681684 108, -7.351050766636632 108, -131.609375 108 M-131.609375 108 C-131.609375 39.560893415660274, -131.609375 -28.87821316867945, -131.609375 -108 M-131.609375 108 C-131.609375 62.75933280996444, -131.609375 17.518665619928882, -131.609375 -108" stroke="#ccc" stroke-width="1.3" fill="none" stroke-dasharray="0 0" style=""/></g><g class="annotation-group text" transform="translate(0, -84)"/><g class="label-group text" transform="translate(-61.359375, -84)"><g class="label" style="font-weight: bolder" transform="translate(0,-12)"><foreignObject width="122.71875" height="24"><div xmlns="http://www.w3.org/1999/xhtml" style="display: table-cell; white-space: nowrap; line-height: 1.5; max-width: 152px; text-align: center;"><span class="nodeLabel markdown-node-label" style=""><p>SessaoMentoria</p></span></div></foreignObject></g></g><g class="members-group text" transform="translate(-119.609375, -36)"><g class="label" style="" transform="translate(0,-12)"><foreignObject width="39.125" height="24"><div xmlns="http://www.w3.org/1999/xhtml" style="display: table-cell; white-space: nowrap; line-height: 1.5; max-width: 93px; text-align: center;"><span class="nodeLabel markdown-node-label" style=""><p>-int id</p></span></div></foreignObject></g><g class="label" style="" transform="translate(0,12)"><foreignObject width="150" height="24"><div xmlns="http://www.w3.org/1999/xhtml" style="display: table-cell; white-space: nowrap; line-height: 1.5; max-width: 198px; text-align: center;"><span class="nodeLabel markdown-node-label" style=""><p>-string linkSalaVirtual</p></span></div></foreignObject></g><g class="label" style="" transform="translate(0,36)"><foreignObject width="177.859375" height="24"><div xmlns="http://www.w3.org/1999/xhtml" style="display: table-cell; white-space: nowrap; line-height: 1.5; max-width: 215px; text-align: center;"><span class="nodeLabel markdown-node-label" style=""><p>-string resumoAnotacoes</p></span></div></foreignObject></g></g><g class="methods-group text" transform="translate(-119.609375, 60)"><g class="label" style="" transform="translate(0,-12)"><foreignObject width="157.84375" height="24"><div xmlns="http://www.w3.org/1999/xhtml" style="display: table-cell; white-space: nowrap; line-height: 1.5; max-width: 199px; text-align: center;"><span class="nodeLabel markdown-node-label" style=""><p>+iniciarSessao() : void</p></span></div></foreignObject></g><g class="label" style="" transform="translate(0,12)"><foreignObject width="171.1875" height="24"><div xmlns="http://www.w3.org/1999/xhtml" style="display: table-cell; white-space: nowrap; line-height: 1.5; max-width: 212px; text-align: center;"><span class="nodeLabel markdown-node-label" style=""><p>+finalizarSessao() : void</p></span></div></foreignObject></g></g><g class="divider" style=""><path d="M-131.609375 -60 C-69.18450628335216 -59.99976284034205, -6.759637566704313 -59.999525680684094, 131.609375 -59.999 M-131.609375 -60 C-64.35100179346747 -59.99974447727145, 2.90737141306505 -59.99948895454289, 131.609375 -59.999" stroke="#ccc" stroke-width="1.3" fill="none" stroke-dasharray="0 0" style=""/></g><g class="divider" style=""><path d="M-131.609375 36 C-51.39116967081456 36.0003047587048, 28.827035658370875 36.0006095174096, 131.609375 36.001 M-131.609375 36 C-41.86644687849646 36.000340944283494, 47.87648124300708 36.00068188856699, 131.609375 36.001" stroke="#ccc" stroke-width="1.3" fill="none" stroke-dasharray="0 0" style=""/></g></g></g></g></g><defs><filter id="my-svg-drop-shadow" height="130%" width="130%"><feDropShadow dx="4" dy="4" stdDeviation="0" flood-opacity="0.06" flood-color="#FFFFFF"/></filter></defs><defs><filter id="my-svg-drop-shadow-small" height="150%" width="150%"><feDropShadow dx="2" dy="2" stdDeviation="0" flood-opacity="0.06" flood-color="#FFFFFF"/></filter></defs><linearGradient id="my-svg-gradient" gradientUnits="objectBoundingBox" x1="0%" y1="0%" x2="100%" y2="0%"><stop offset="0%" stop-color="#cccccc" stop-opacity="1"/><stop offset="100%" stop-color="hsl(180, 0%, 18.3529411765%)" stop-opacity="1"/></linearGradient></svg>